  0
SECTION
  2
HEADER
  9
$ACADVER
  1
AC1015
  9
$ACADMAINTVER
 70
     6
  9
$DWGCODEPAGE
  3
ANSI_1251
  9
$INSBASE
 10
0.0
 20
0.0
 30
0.0
  9
$EXTMIN
 10
-54.4609665653
 20
-79.6993752496
 30
0.0
  9
$EXTMAX
 10
87.0390328685
 20
59.8006251379
 30
0.0
  9
$LIMMIN
 10
0.0
 20
0.0
  9
$LIMMAX
 10
420.0
 20
297.0
  9
$ORTHOMODE
 70
     0
  9
$REGENMODE
 70
     1
  9
$FILLMODE
 70
     1
  9
$QTEXTMODE
 70
     0
  9
$MIRRTEXT
 70
     1
  9
$LTSCALE
 40
1.0
  9
$ATTMODE
 70
     1
  9
$TEXTSIZE
 40
4.0
  9
$TRACEWID
 40
1.0
  9
$TEXTSTYLE
  7
Standard
  9
$CLAYER
  8
0
  9
$CELTYPE
  6
ByLayer
  9
$CECOLOR
 62
   256
  9
$CELTSCALE
 40
1.0
  9
$DISPSILH
 70
     0
  9
$DIMSCALE
 40
1.0
  9
$DIMASZ
 40
6.0
  9
$DIMEXO
 40
1.0
  9
$DIMDLI
 40
3.75
  9
$DIMRND
 40
0.0
  9
$DIMDLE
 40
0.0
  9
$DIMEXE
 40
1.0
  9
$DIMTP
 40
0.0
  9
$DIMTM
 40
0.0
  9
$DIMTXT
 40
4.0
  9
$DIMCEN
 40
2.5
  9
$DIMTSZ
 40
0.0
  9
$DIMTOL
 70
     0
  9
$DIMLIM
 70
     0
  9
$DIMTIH
 70
     1
  9
$DIMTOH
 70
     1
  9
$DIMSE1
 70
     0
  9
$DIMSE2
 70
     0
  9
$DIMTAD
 70
     1
  9
$DIMZIN
 70
     0
  9
$DIMBLK
  1

  9
$DIMASO
 70
     1
  9
$DIMSHO
 70
     1
  9
$DIMPOST
  1

  9
$DIMAPOST
  1

  9
$DIMALT
 70
     0
  9
$DIMALTD
 70
     3
  9
$DIMALTF
 40
0.0393700787
  9
$DIMLFAC
 40
1.0
  9
$DIMTOFL
 70
     1
  9
$DIMTVP
 40
0.0
  9
$DIMTIX
 70
     0
  9
$DIMSOXD
 70
     0
  9
$DIMSAH
 70
     0
  9
$DIMBLK1
  1

  9
$DIMBLK2
  1

  9
$DIMSTYLE
  2
ISO-25
  9
$DIMCLRD
 70
     0
  9
$DIMCLRE
 70
     0
  9
$DIMCLRT
 70
     0
  9
$DIMTFAC
 40
1.0
  9
$DIMGAP
 40
3.0
  9
$DIMJUST
 70
     0
  9
$DIMSD1
 70
     0
  9
$DIMSD2
 70
     0
  9
$DIMTOLJ
 70
     0
  9
$DIMTZIN
 70
     0
  9
$DIMALTZ
 70
     0
  9
$DIMALTTZ
 70
     0
  9
$DIMUPT
 70
     0
  9
$DIMDEC
 70
     2
  9
$DIMTDEC
 70
     4
  9
$DIMALTU
 70
     2
  9
$DIMALTTD
 70
     3
  9
$DIMTXSTY
  7
Standard
  9
$DIMAUNIT
 70
     0
  9
$DIMADEC
 70
     2
  9
$DIMALTRND
 40
0.0
  9
$DIMAZIN
 70
     0
  9
$DIMDSEP
 70
    44
  9
$DIMATFIT
 70
     3
  9
$DIMFRAC
 70
     0
  9
$DIMLDRBLK
  1

  9
$DIMLUNIT
 70
     2
  9
$DIMLWD
 70
    -2
  9
$DIMLWE
 70
    -2
  9
$DIMTMOVE
 70
     0
  9
$LUNITS
 70
     2
  9
$LUPREC
 70
     2
  9
$SKETCHINC
 40
1.0
  9
$FILLETRAD
 40
10.0
  9
$AUNITS
 70
     0
  9
$AUPREC
 70
     2
  9
$MENU
  1
.
  9
$ELEVATION
 40
0.0
  9
$PELEVATION
 40
0.0
  9
$THICKNESS
 40
0.0
  9
$LIMCHECK
 70
     0
  9
$CHAMFERA
 40
0.0
  9
$CHAMFERB
 40
0.0
  9
$CHAMFERC
 40
0.0
  9
$CHAMFERD
 40
0.0
  9
$SKPOLY
 70
     0
  9
$TDCREATE
 40
2459252.059707523
  9
$TDUCREATE
 40
2459251.809707523
  9
$TDUPDATE
 40
2459252.059735185
  9
$TDUUPDATE
 40
2459251.809735185
  9
$TDINDWG
 40
0.0000000116
  9
$TDUSRTIMER
 40
0.0000000116
  9
$USRTIMER
 70
     1
  9
$ANGBASE
 50
0.0
  9
$ANGDIR
 70
     0
  9
$PDMODE
 70
     0
  9
$PDSIZE
 40
-1.0
  9
$PLINEWID
 40
0.0
  9
$SPLFRAME
 70
     0
  9
$SPLINETYPE
 70
     6
  9
$SPLINESEGS
 70
     8
  9
$HANDSEED
  5
18E
  9
$SURFTAB1
 70
     6
  9
$SURFTAB2
 70
     6
  9
$SURFTYPE
 70
     6
  9
$SURFU
 70
     6
  9
$SURFV
 70
     6
  9
$UCSBASE
  2

  9
$UCSNAME
  2

  9
$UCSORG
 10
0.0
 20
0.0
 30
0.0
  9
$UCSXDIR
 10
1.0
 20
0.0
 30
0.0
  9
$UCSYDIR
 10
0.0
 20
1.0
 30
0.0
  9
$UCSORTHOREF
  2

  9
$UCSORTHOVIEW
 70
     0
  9
$UCSORGTOP
 10
0.0
 20
0.0
 30
0.0
  9
$UCSORGBOTTOM
 10
0.0
 20
0.0
 30
0.0
  9
$UCSORGLEFT
 10
0.0
 20
0.0
 30
0.0
  9
$UCSORGRIGHT
 10
0.0
 20
0.0
 30
0.0
  9
$UCSORGFRONT
 10
0.0
 20
0.0
 30
0.0
  9
$UCSORGBACK
 10
0.0
 20
0.0
 30
0.0
  9
$PUCSBASE
  2

  9
$PUCSNAME
  2

  9
$PUCSORG
 10
0.0
 20
0.0
 30
0.0
  9
$PUCSXDIR
 10
1.0
 20
0.0
 30
0.0
  9
$PUCSYDIR
 10
0.0
 20
1.0
 30
0.0
  9
$PUCSORTHOREF
  2

  9
$PUCSORTHOVIEW
 70
     0
  9
$PUCSORGTOP
 10
0.0
 20
0.0
 30
0.0
  9
$PUCSORGBOTTOM
 10
0.0
 20
0.0
 30
0.0
  9
$PUCSORGLEFT
 10
0.0
 20
0.0
 30
0.0
  9
$PUCSORGRIGHT
 10
0.0
 20
0.0
 30
0.0
  9
$PUCSORGFRONT
 10
0.0
 20
0.0
 30
0.0
  9
$PUCSORGBACK
 10
0.0
 20
0.0
 30
0.0
  9
$USERI1
 70
     0
  9
$USERI2
 70
     0
  9
$USERI3
 70
     0
  9
$USERI4
 70
     0
  9
$USERI5
 70
     0
  9
$USERR1
 40
0.0
  9
$USERR2
 40
0.0
  9
$USERR3
 40
0.0
  9
$USERR4
 40
0.0
  9
$USERR5
 40
0.0
  9
$WORLDVIEW
 70
     1
  9
$SHADEDGE
 70
     3
  9
$SHADEDIF
 70
    70
  9
$TILEMODE
 70
     1
  9
$MAXACTVP
 70
    64
  9
$PINSBASE
 10
0.0
 20
0.0
 30
0.0
  9
$PLIMCHECK
 70
     0
  9
$PEXTMIN
 10
1.0000000000E+20
 20
1.0000000000E+20
 30
1.0000000000E+20
  9
$PEXTMAX
 10
-1.0000000000E+20
 20
-1.0000000000E+20
 30
-1.0000000000E+20
  9
$PLIMMIN
 10
0.0
 20
0.0
  9
$PLIMMAX
 10
420.0
 20
297.0
  9
$UNITMODE
 70
     0
  9
$VISRETAIN
 70
     1
  9
$PLINEGEN
 70
     0
  9
$PSLTSCALE
 70
     1
  9
$TREEDEPTH
 70
  3020
  9
$CMLSTYLE
  2
Standard
  9
$CMLJUST
 70
     0
  9
$CMLSCALE
 40
20.0
  9
$PROXYGRAPHICS
 70
     1
  9
$MEASUREMENT
 70
     1
  9
$CELWEIGHT
370
    -1
  9
$ENDCAPS
280
     0
  9
$JOINSTYLE
280
     0
  9
$LWDISPLAY
290
     1
  9
$INSUNITS
 70
     4
  9
$HYPERLINKBASE
  1

  9
$STYLESHEET
  1

  9
$XEDIT
290
     1
  9
$CEPSNTYPE
380
     0
  9
$PSTYLEMODE
290
     1
  9
$FINGERPRINTGUID
  2
{52FC7D96-295B-4BB7-8E37-E74C0ADCB40F}
  9
$VERSIONGUID
  2
{FAEB1C32-E019-11D5-929B-00C0DF256EC4}
  9
$EXTNAMES
290
     1
  9
$PSVPSCALE
 40
0.0
  9
$OLESTARTUP
290
     0
  0
ENDSEC
  0
SECTION
  2
CLASSES
  0
CLASS
  1
ACDBDICTIONARYWDFLT
  2
AcDbDictionaryWithDefault
  3
ObjectDBX Classes
 90
        0
280
     0
281
     0
  0
CLASS
  1
VISUALSTYLE
  2
AcDbVisualStyle
  3
ObjectDBX Classes
 90
     4095
280
     0
281
     0
  0
CLASS
  1
MATERIAL
  2
AcDbMaterial
  3
ObjectDBX Classes
 90
     1153
280
     0
281
     0
  0
CLASS
  1
SCALE
  2
AcDbScale
  3
ObjectDBX Classes
 90
     1153
280
     0
281
     0
  0
CLASS
  1
TABLESTYLE
  2
AcDbTableStyle
  3
ObjectDBX Classes
 90
     4095
280
     0
281
     0
  0
CLASS
  1
MLEADERSTYLE
  2
AcDbMLeaderStyle
  3
ACDB_MLEADERSTYLE_CLASS
 90
     4095
280
     0
281
     0
  0
CLASS
  1
SUN
  2
AcDbSun
  3
SCENEOE
 90
     1153
280
     0
281
     0
  0
CLASS
  1
ACDBPLACEHOLDER
  2
AcDbPlaceHolder
  3
ObjectDBX Classes
 90
        0
280
     0
281
     0
  0
CLASS
  1
LAYOUT
  2
AcDbLayout
  3
ObjectDBX Classes
 90
        0
280
     0
281
     0
  0
ENDSEC
  0
SECTION
  2
TABLES
  0
TABLE
  2
VPORT
  5
8
330
0
100
AcDbSymbolTable
 70
     1
  0
VPORT
  5
29
330
8
100
AcDbSymbolTableRecord
100
AcDbViewportTableRecord
  2
*Active
 70
     0
 10
0.0
 20
0.0
 11
1.0
 21
1.0
 12
16.2890331516
 22
-9.9493750558
 13
0.0
 23
0.0
 14
10.0
 24
10.0
 15
10.0
 25
10.0
 16
0.0
 26
0.0
 36
1.0
 17
0.0
 27
0.0
 37
0.0
 40
142.2900003952
 41
1.0143369107
 42
50.0
 43
0.0
 44
0.0
 50
0.0
 51
0.0
 71
     0
 72
   100
 73
     1
 74
     3
 75
     0
 76
     0
 77
     0
 78
     0
281
     0
 65
     1
110
0.0
120
0.0
130
0.0
111
1.0
121
0.0
131
0.0
112
0.0
122
1.0
132
0.0
 79
     0
146
0.0
  0
ENDTAB
  0
TABLE
  2
LTYPE
  5
5
330
0
100
AcDbSymbolTable
 70
     6
  0
LTYPE
  5
14
330
5
100
AcDbSymbolTableRecord
100
AcDbLinetypeTableRecord
  2
ByBlock
 70
     0
  3

 72
    65
 73
     0
 40
0.0
  0
LTYPE
  5
15
330
5
100
AcDbSymbolTableRecord
100
AcDbLinetypeTableRecord
  2
ByLayer
 70
     0
  3

 72
    65
 73
     0
 40
0.0
  0
LTYPE
  5
16
330
5
100
AcDbSymbolTableRecord
100
AcDbLinetypeTableRecord
  2
Continuous
 70
     0
  3
Solid line
 72
    65
 73
     0
 40
0.0
  0
LTYPE
  5
6E
330
5
100
AcDbSymbolTableRecord
100
AcDbLinetypeTableRecord
  2
HIDDEN
 70
     0
  3
Hidden __ __ __ __ __ __ __ __ __ __ __ __ __ __
 72
    65
 73
     2
 40
1.905
 49
1.27
 74
     0
 49
-0.635
 74
     0
  0
LTYPE
  5
6F
330
5
100
AcDbSymbolTableRecord
100
AcDbLinetypeTableRecord
  2
PHANTOM
 70
     0
  3
Phantom ______  __  __  ______  __  __  ______
 72
    65
 73
     6
 40
12.7
 49
6.35
 74
     0
 49
-1.27
 74
     0
 49
1.27
 74
     0
 49
-1.27
 74
     0
 49
1.27
 74
     0
 49
-1.27
 74
     0
  0
LTYPE
  5
70
330
5
100
AcDbSymbolTableRecord
100
AcDbLinetypeTableRecord
  2
CENTER
 70
     0
  3
Center ____ _ ____ _ ____ _ ____ _ ____ _ ____
 72
    65
 73
     4
 40
10.16
 49
6.35
 74
     0
 49
-1.27
 74
     0
 49
1.27
 74
     0
 49
-1.27
 74
     0
  0
LTYPE
  5
71
330
5
100
AcDbSymbolTableRecord
100
AcDbLinetypeTableRecord
  2
CENTERX2
 70
     0
  3
Center (2x) ________  __  ________  __  _____
 72
    65
 73
     4
 40
20.32
 49
12.7
 74
     0
 49
-2.54
 74
     0
 49
2.54
 74
     0
 49
-2.54
 74
     0
  0
LTYPE
  5
72
330
5
100
AcDbSymbolTableRecord
100
AcDbLinetypeTableRecord
  2
DOT2
 70
     0
  3
Dot (.5x) ........................................
 72
    65
 73
     2
 40
0.635
 49
0.0
 74
     0
 49
-0.635
 74
     0
  0
ENDTAB
  0
TABLE
  2
LAYER
  5
2
330
0
100
AcDbSymbolTable
 70
     1
  0
LAYER
  5
10
330
2
100
AcDbSymbolTableRecord
100
AcDbLayerTableRecord
  2
0
 70
     0
 62
     7
  6
Continuous
370
    -3
390
F
  0
ENDTAB
  0
TABLE
  2
STYLE
  5
3
330
0
100
AcDbSymbolTable
 70
     1
  0
STYLE
  5
11
330
3
100
AcDbSymbolTableRecord
100
AcDbTextStyleTableRecord
  2
Standard
 70
     0
 40
0.0
 41
1.0
 50
0.0
 71
     0
 42
4.0
  3
txt
  4

  0
ENDTAB
  0
TABLE
  2
VIEW
  5
6
330
0
100
AcDbSymbolTable
 70
     0
  0
ENDTAB
  0
TABLE
  2
UCS
  5
7
330
0
100
AcDbSymbolTable
 70
     0
  0
ENDTAB
  0
TABLE
  2
APPID
  5
9
330
0
100
AcDbSymbolTable
 70
     1
  0
APPID
  5
12
330
9
100
AcDbSymbolTableRecord
100
AcDbRegAppTableRecord
  2
ACAD
 70
     0
  0
ENDTAB
  0
TABLE
  2
DIMSTYLE
  5
A
330
0
100
AcDbSymbolTable
 70
     1
100
AcDbDimStyleTable
  0
DIMSTYLE
105
27
330
A
100
AcDbSymbolTableRecord
100
AcDbDimStyleTableRecord
  2
ISO-25
 70
     0
 41
2.5
 42
0.625
 43
3.75
 44
1.25
 73
     0
 74
     0
 77
     1
 78
     8
140
2.5
141
2.5
143
0.0393700787
147
0.625
171
     3
172
     1
178
     0
271
     2
272
     2
274
     3
278
    44
283
     0
284
     8
340
11
  0
ENDTAB
  0
TABLE
  2
BLOCK_RECORD
  5
1
330
0
100
AcDbSymbolTable
 70
     1
  0
BLOCK_RECORD
  5
1F
330
1
100
AcDbSymbolTableRecord
100
AcDbBlockTableRecord
  2
*Model_Space
340
22
  0
BLOCK_RECORD
  5
1B
330
1
100
AcDbSymbolTableRecord
100
AcDbBlockTableRecord
  2
*Paper_Space
340
1E
  0
BLOCK_RECORD
  5
23
330
1
100
AcDbSymbolTableRecord
100
AcDbBlockTableRecord
  2
*Paper_Space0
340
26
  0
ENDTAB
  0
ENDSEC
  0
SECTION
  2
BLOCKS
  0
BLOCK
  5
20
330
1F
100
AcDbEntity
  8
0
100
AcDbBlockBegin
  2
*Model_Space
 70
     0
 10
0.0
 20
0.0
 30
0.0
  3
*Model_Space
  1

  0
ENDBLK
  5
21
330
1F
100
AcDbEntity
  8
0
100
AcDbBlockEnd
  0
BLOCK
  5
1C
330
1B
100
AcDbEntity
 67
     1
  8
0
100
AcDbBlockBegin
  2
*Paper_Space
 70
     0
 10
0.0
 20
0.0
 30
0.0
  3
*Paper_Space
  1

  0
ENDBLK
  5
1D
330
1B
100
AcDbEntity
 67
     1
  8
0
100
AcDbBlockEnd
  0
BLOCK
  5
24
330
23
100
AcDbEntity
  8
0
100
AcDbBlockBegin
  2
*Paper_Space0
 70
     0
 10
0.0
 20
0.0
 30
0.0
  3
*Paper_Space0
  1

  0
ENDBLK
  5
25
330
23
100
AcDbEntity
  8
0
100
AcDbBlockEnd
  0
ENDSEC
  0
SECTION
  2
ENTITIES
  0
SPLINE
  5
97
330
1F
100
AcDbEntity
  8
0
  6
Continuous
 62
     7
370
    25
100
AcDbSpline
210
0.0
220
0.0
230
1.0
 70
     8
 71
     3
 72
     8
 73
     4
 74
     0
 42
0.000000001
 43
0.00000001
 40
0.9736842105263158
 40
0.9736842105263158
 40
0.9736842105263158
 40
0.9736842105263158
 40
1.0
 40
1.0
 40
1.0
 40
1.0
 10
23.84511947244481
 20
-34.04518170591541
 30
0.0
 10
24.0633194724448
 20
-34.7170817059154
 30
0.0
 10
23.85551947244479
 20
-34.72838170591541
 30
0.0
 10
24.53111947244482
 20
-36.5252817059154
 30
0.0
  0
SPLINE
  5
98
330
1F
100
AcDbEntity
  8
0
  6
Continuous
 62
     7
370
    25
100
AcDbSpline
210
0.0
220
0.0
230
1.0
 70
     8
 71
     3
 72
     8
 73
     4
 74
     0
 42
0.000000001
 43
0.00000001
 40
0.0
 40
0.0
 40
0.0
 40
0.0
 40
0.0131578947368421
 40
0.0131578947368421
 40
0.0131578947368421
 40
0.0131578947368421
 10
24.53111947244482
 20
-36.5252817059154
 30
0.0
 10
23.92921947244482
 20
-36.61618170591541
 30
0.0
 10
23.22141947244483
 20
-37.00808170591542
 30
0.0
 10
22.81331947244483
 20
-37.31958170591542
 30
0.0
  0
SPLINE
  5
99
330
1F
100
AcDbEntity
  8
0
  6
Continuous
 62
     7
370
    25
100
AcDbSpline
210
0.0
220
0.0
230
1.0
 70
     8
 71
     3
 72
     8
 73
     4
 74
     0
 42
0.000000001
 43
0.00000001
 40
0.0131578947368421
 40
0.0131578947368421
 40
0.0131578947368421
 40
0.0131578947368421
 40
0.0263157894736842
 40
0.0263157894736842
 40
0.0263157894736842
 40
0.0263157894736842
 10
22.81331947244483
 20
-37.31958170591542
 30
0.0
 10
21.32461947244484
 20
-38.45548170591544
 30
0.0
 10
20.37101947244487
 20
-40.69428170591545
 30
0.0
 10
20.3327194724449
 20
-42.56088170591545
 30
0.0
  0
SPLINE
  5
9A
330
1F
100
AcDbEntity
  8
0
  6
Continuous
 62
     7
370
    25
100
AcDbSpline
210
0.0
220
0.0
230
1.0
 70
     8
 71
     3
 72
     8
 73
     4
 74
     0
 42
0.000000001
 43
0.00000001
 40
0.0263157894736842
 40
0.0263157894736842
 40
0.0263157894736842
 40
0.0263157894736842
 40
0.0394736842105263
 40
0.0394736842105263
 40
0.0394736842105263
 40
0.0394736842105263
 10
20.3327194724449
 20
-42.56088170591545
 30
0.0
 10
20.32361947244489
 20
-43.00808170591544
 30
0.0
 10
20.58081947244489
 20
-43.29698170591544
 30
0.0
 10
21.0230194724449
 20
-43.12218170591544
 30
0.0
  0
SPLINE
  5
9B
330
1F
100
AcDbEntity
  8
0
  6
Continuous
 62
     7
370
    25
100
AcDbSpline
210
0.0
220
0.0
230
1.0
 70
     8
 71
     3
 72
     8
 73
     4
 74
     0
 42
0.000000001
 43
0.00000001
 40
0.0394736842105263
 40
0.0394736842105263
 40
0.0394736842105263
 40
0.0394736842105263
 40
0.0526315789473684
 40
0.0526315789473684
 40
0.0526315789473684
 40
0.0526315789473684
 10
21.0230194724449
 20
-43.12218170591544
 30
0.0
 10
21.3751194724449
 20
-42.98298170591544
 30
0.0
 10
21.30731947244489
 20
-42.57878170591543
 30
0.0
 10
21.36911947244489
 20
-42.17218170591544
 30
0.0
  0
SPLINE
  5
9C
330
1F
100
AcDbEntity
  8
0
  6
Continuous
 62
     7
370
    25
100
AcDbSpline
210
0.0
220
0.0
230
1.0
 70
     8
 71
     3
 72
     8
 73
     4
 74
     0
 42
0.000000001
 43
0.00000001
 40
0.0526315789473684
 40
0.0526315789473684
 40
0.0526315789473684
 40
0.0526315789473684
 40
0.0657894736842105
 40
0.0657894736842105
 40
0.0657894736842105
 40
0.0657894736842105
 10
21.36911947244489
 20
-42.17218170591544
 30
0.0
 10
21.47141947244488
 20
-41.49878170591543
 30
0.0
 10
21.67461947244487
 20
-40.75228170591544
 30
0.0
 10
21.93641947244487
 20
-40.16528170591543
 30
0.0
  0
SPLINE
  5
9D
330
1F
100
AcDbEntity
  8
0
  6
Continuous
 62
     7
370
    25
100
AcDbSpline
210
0.0
220
0.0
230
1.0
 70
     8
 71
     3
 72
     8
 73
     4
 74
     0
 42
0.000000001
 43
0.00000001
 40
0.0657894736842105
 40
0.0657894736842105
 40
0.0657894736842105
 40
0.0657894736842105
 40
0.0789473684210526
 40
0.0789473684210526
 40
0.0789473684210526
 40
0.0789473684210526
 10
21.93641947244487
 20
-40.16528170591543
 30
0.0
 10
22.97991947244484
 20
-37.82598170591542
 30
0.0
 10
24.12961947244484
 20
-37.68618170591541
 30
0.0
 10
26.40971947244484
 20
-36.94678170591538
 30
0.0
  0
SPLINE
  5
9E
330
1F
100
AcDbEntity
  8
0
  6
Continuous
 62
     7
370
    25
100
AcDbSpline
210
0.0
220
0.0
230
1.0
 70
     8
 71
     3
 72
     8
 73
     4
 74
     0
 42
0.000000001
 43
0.00000001
 40
0.0789473684210526
 40
0.0789473684210526
 40
0.0789473684210526
 40
0.0789473684210526
 40
0.0921052631578947
 40
0.0921052631578947
 40
0.0921052631578947
 40
0.0921052631578947
 10
26.40971947244484
 20
-36.94678170591538
 30
0.0
 10
27.06651947244483
 20
-36.73378170591538
 30
0.0
 10
27.65781947244482
 20
-36.46328170591537
 30
0.0
 10
28.28061947244481
 20
-36.24758170591536
 30
0.0
  0
SPLINE
  5
9F
330
1F
100
AcDbEntity
  8
0
  6
Continuous
 62
     7
370
    25
100
AcDbSpline
210
0.0
220
0.0
230
1.0
 70
     8
 71
     3
 72
     8
 73
     4
 74
     0
 42
0.000000001
 43
0.00000001
 40
0.0921052631578947
 40
0.0921052631578947
 40
0.0921052631578947
 40
0.0921052631578947
 40
0.1052631578947368
 40
0.1052631578947368
 40
0.1052631578947368
 40
0.1052631578947368
 10
28.28061947244481
 20
-36.24758170591536
 30
0.0
 10
29.12791947244482
 20
-35.95428170591535
 30
0.0
 10
29.29181947244481
 20
-35.81228170591535
 30
0.0
 10
29.88831947244482
 20
-35.28048170591535
 30
0.0
  0
SPLINE
  5
A0
330
1F
100
AcDbEntity
  8
0
  6
Continuous
 62
     7
370
    25
100
AcDbSpline
210
0.0
220
0.0
230
1.0
 70
     8
 71
     3
 72
     8
 73
     4
 74
     0
 42
0.000000001
 43
0.00000001
 40
0.1052631578947368
 40
0.1052631578947368
 40
0.1052631578947368
 40
0.1052631578947368
 40
0.1184210526315789
 40
0.1184210526315789
 40
0.1184210526315789
 40
0.1184210526315789
 10
29.88831947244482
 20
-35.28048170591535
 30
0.0
 10
30.6336194724448
 20
-34.61608170591534
 30
0.0
 10
32.64141947244478
 20
-32.15348170591532
 30
0.0
 10
33.53071947244477
 20
-31.21748170591531
 30
0.0
  0
SPLINE
  5
A1
330
1F
100
AcDbEntity
  8
0
  6
Continuous
 62
     7
370
    25
100
AcDbSpline
210
0.0
220
0.0
230
1.0
 70
     8
 71
     3
 72
     8
 73
     4
 74
     0
 42
0.000000001
 43
0.00000001
 40
0.1184210526315789
 40
0.1184210526315789
 40
0.1184210526315789
 40
0.1184210526315789
 40
0.131578947368421
 40
0.131578947368421
 40
0.131578947368421
 40
0.131578947368421
 10
33.53071947244477
 20
-31.21748170591531
 30
0.0
 10
33.76761947244478
 20
-30.96818170591531
 30
0.0
 10
33.87101947244476
 20
-30.7927817059153
 30
0.0
 10
34.11391947244477
 20
-30.5203817059153
 30
0.0
  0
SPLINE
  5
A3
330
1F
100
AcDbEntity
  8
0
  6
Continuous
 62
     7
370
    25
100
AcDbSpline
210
0.0
220
0.0
230
1.0
 70
     8
 71
     3
 72
     8
 73
     4
 74
     0
 42
0.000000001
 43
0.00000001
 40
0.1447368421052632
 40
0.1447368421052632
 40
0.1447368421052632
 40
0.1447368421052632
 40
0.1578947368421053
 40
0.1578947368421053
 40
0.1578947368421053
 40
0.1578947368421053
 10
36.46291947244473
 20
-27.79668170591528
 30
0.0
 10
36.72411947244472
 20
-27.51418170591528
 30
0.0
 10
36.88481947244472
 20
-27.34048170591527
 30
0.0
 10
37.06241947244472
 20
-27.11438170591527
 30
0.0
  0
SPLINE
  5
A5
330
1F
100
AcDbEntity
  8
0
  6
Continuous
 62
     7
370
    25
100
AcDbSpline
210
0.0
220
0.0
230
1.0
 70
     8
 71
     3
 72
     8
 73
     4
 74
     0
 42
0.000000001
 43
0.00000001
 40
0.1710526315789474
 40
0.1710526315789474
 40
0.1710526315789474
 40
0.1710526315789474
 40
0.1842105263157895
 40
0.1842105263157895
 40
0.1842105263157895
 40
0.1842105263157895
 10
38.24861947244471
 20
-25.73348170591526
 30
0.0
 10
39.1688194724447
 20
-24.60778170591525
 30
0.0
 10
41.1050194724447
 20
-24.89748170591523
 30
0.0
 10
41.28241947244472
 20
-26.57378170591523
 30
0.0
  0
SPLINE
  5
A6
330
1F
100
AcDbEntity
  8
0
  6
Continuous
 62
     7
370
    25
100
AcDbSpline
210
0.0
220
0.0
230
1.0
 70
     8
 71
     3
 72
     8
 73
     4
 74
     0
 42
0.000000001
 43
0.00000001
 40
0.1842105263157895
 40
0.1842105263157895
 40
0.1842105263157895
 40
0.1842105263157895
 40
0.1973684210526316
 40
0.1973684210526316
 40
0.1973684210526316
 40
0.1973684210526316
 10
41.28241947244472
 20
-26.57378170591523
 30
0.0
 10
41.41361947244475
 20
-27.81408170591522
 30
0.0
 10
40.24491947244474
 20
-29.06288170591524
 30
0.0
 10
39.66391947244475
 20
-30.10428170591524
 30
0.0
  0
SPLINE
  5
A7
330
1F
100
AcDbEntity
  8
0
  6
Continuous
 62
     7
370
    25
100
AcDbSpline
210
0.0
220
0.0
230
1.0
 70
     8
 71
     3
 72
     8
 73
     4
 74
     0
 42
0.000000001
 43
0.00000001
 40
0.1973684210526316
 40
0.1973684210526316
 40
0.1973684210526316
 40
0.1973684210526316
 40
0.2105263157894737
 40
0.2105263157894737
 40
0.2105263157894737
 40
0.2105263157894737
 10
39.66391947244475
 20
-30.10428170591524
 30
0.0
 10
39.06131947244477
 20
-31.18438170591525
 30
0.0
 10
38.33981947244477
 20
-32.24058170591526
 30
0.0
 10
37.70561947244479
 20
-33.28218170591526
 30
0.0
  0
SPLINE
  5
A8
330
1F
100
AcDbEntity
  8
0
  6
Continuous
 62
     7
370
    25
100
AcDbSpline
210
0.0
220
0.0
230
1.0
 70
     8
 71
     3
 72
     8
 73
     4
 74
     0
 42
0.000000001
 43
0.00000001
 40
0.2105263157894737
 40
0.2105263157894737
 40
0.2105263157894737
 40
0.2105263157894737
 40
0.2236842105263158
 40
0.2236842105263158
 40
0.2236842105263158
 40
0.2236842105263158
 10
37.70561947244479
 20
-33.28218170591526
 30
0.0
 10
37.0276194724448
 20
-34.39538170591527
 30
0.0
 10
36.3804194724448
 20
-35.34438170591528
 30
0.0
 10
35.71861947244483
 20
-36.43218170591528
 30
0.0
  0
SPLINE
  5
A9
330
1F
100
AcDbEntity
  8
0
  6
Continuous
 62
     7
370
    25
100
AcDbSpline
210
0.0
220
0.0
230
1.0
 70
     8
 71
     3
 72
     8
 73
     4
 74
     0
 42
0.000000001
 43
0.00000001
 40
0.2236842105263158
 40
0.2236842105263158
 40
0.2236842105263158
 40
0.2236842105263158
 40
0.2368421052631579
 40
0.2368421052631579
 40
0.2368421052631579
 40
0.2368421052631579
 10
35.71861947244483
 20
-36.43218170591528
 30
0.0
 10
35.24401947244482
 20
-37.2120817059153
 30
0.0
 10
34.64591947244483
 20
-37.9714817059153
 30
0.0
 10
34.22161947244484
 20
-38.78828170591531
 30
0.0
  0
SPLINE
  5
AA
330
1F
100
AcDbEntity
  8
0
  6
Continuous
 62
     7
370
    25
100
AcDbSpline
210
0.0
220
0.0
230
1.0
 70
     8
 71
     3
 72
     8
 73
     4
 74
     0
 42
0.000000001
 43
0.00000001
 40
0.2368421052631579
 40
0.2368421052631579
 40
0.2368421052631579
 40
0.2368421052631579
 40
0.25
 40
0.25
 40
0.25
 40
0.25
 10
34.22161947244484
 20
-38.78828170591531
 30
0.0
 10
34.04021947244486
 20
-39.1375817059153
 30
0.0
 10
34.17001947244486
 20
-39.54848170591529
 30
0.0
 10
34.59971947244485
 20
-39.5698817059153
 30
0.0
  0
SPLINE
  5
AB
330
1F
100
AcDbEntity
  8
0
  6
Continuous
 62
     7
370
    25
100
AcDbSpline
210
0.0
220
0.0
230
1.0
 70
     8
 71
     3
 72
     8
 73
     4
 74
     0
 42
0.000000001
 43
0.00000001
 40
0.25
 40
0.25
 40
0.25
 40
0.25
 40
0.2631578947368421
 40
0.2631578947368421
 40
0.2631578947368421
 40
0.2631578947368421
 10
34.59971947244485
 20
-39.5698817059153
 30
0.0
 10
35.00041947244485
 20
-39.5898817059153
 30
0.0
 10
35.11571947244485
 20
-39.26198170591529
 30
0.0
 10
35.31091947244486
 20
-38.9682817059153
 30
0.0
  0
SPLINE
  5
AC
330
1F
100
AcDbEntity
  8
0
  6
Continuous
 62
     7
370
    25
100
AcDbSpline
210
0.0
220
0.0
230
1.0
 70
     8
 71
     3
 72
     8
 73
     4
 74
     0
 42
0.000000001
 43
0.00000001
 40
0.2631578947368421
 40
0.2631578947368421
 40
0.2631578947368421
 40
0.2631578947368421
 40
0.2763157894736842
 40
0.2763157894736842
 40
0.2763157894736842
 40
0.2763157894736842
 10
35.31091947244486
 20
-38.9682817059153
 30
0.0
 10
35.49621947244486
 20
-38.68958170591529
 30
0.0
 10
35.62091947244486
 20
-38.45158170591528
 30
0.0
 10
35.80341947244484
 20
-38.17508170591528
 30
0.0
  0
SPLINE
  5
AD
330
1F
100
AcDbEntity
  8
0
  6
Continuous
 62
     7
370
    25
100
AcDbSpline
210
0.0
220
0.0
230
1.0
 70
     8
 71
     3
 72
     8
 73
     4
 74
     0
 42
0.000000001
 43
0.00000001
 40
0.2763157894736842
 40
0.2763157894736842
 40
0.2763157894736842
 40
0.2763157894736842
 40
0.2894736842105263
 40
0.2894736842105263
 40
0.2894736842105263
 40
0.2894736842105263
 10
35.80341947244484
 20
-38.17508170591528
 30
0.0
 10
36.08921947244484
 20
-37.74228170591528
 30
0.0
 10
38.6037194724448
 20
-33.84908170591526
 30
0.0
 10
38.7626194724448
 20
-33.45638170591525
 30
0.0
  0
SPLINE
  5
AE
330
1F
100
AcDbEntity
  8
0
  6
Continuous
 62
     7
370
    25
100
AcDbSpline
210
0.0
220
0.0
230
1.0
 70
     8
 71
     3
 72
     8
 73
     4
 74
     0
 42
0.000000001
 43
0.00000001
 40
0.2894736842105263
 40
0.2894736842105263
 40
0.2894736842105263
 40
0.2894736842105263
 40
0.3026315789473684
 40
0.3026315789473684
 40
0.3026315789473684
 40
0.3026315789473684
 10
38.7626194724448
 20
-33.45638170591525
 30
0.0
 10
39.33651947244479
 20
-33.57238170591525
 30
0.0
 10
40.6186194724448
 20
-33.75008170591523
 30
0.0
 10
41.08121947244479
 20
-33.95538170591523
 30
0.0
  0
SPLINE
  5
AF
330
1F
100
AcDbEntity
  8
0
  6
Continuous
 62
     7
370
    25
100
AcDbSpline
210
0.0
220
0.0
230
1.0
 70
     8
 71
     3
 72
     8
 73
     4
 74
     0
 42
0.000000001
 43
0.00000001
 40
0.3026315789473684
 40
0.3026315789473684
 40
0.3026315789473684
 40
0.3026315789473684
 40
0.3157894736842105
 40
0.3157894736842105
 40
0.3157894736842105
 40
0.3157894736842105
 10
41.08121947244479
 20
-33.95538170591523
 30
0.0
 10
41.20991947244482
 20
-34.96768170591523
 30
0.0
 10
41.16521947244483
 20
-36.95118170591523
 30
0.0
 10
41.08751947244485
 20
-38.00368170591523
 30
0.0
  0
SPLINE
  5
B0
330
1F
100
AcDbEntity
  8
0
  6
Continuous
 62
     7
370
    25
100
AcDbSpline
210
0.0
220
0.0
230
1.0
 70
     8
 71
     3
 72
     8
 73
     4
 74
     0
 42
0.000000001
 43
0.00000001
 40
0.3157894736842105
 40
0.3157894736842105
 40
0.3157894736842105
 40
0.3157894736842105
 40
0.3289473684210527
 40
0.3289473684210527
 40
0.3289473684210527
 40
0.3289473684210527
 10
41.08751947244485
 20
-38.00368170591523
 30
0.0
 10
40.89071947244486
 20
-40.67038170591523
 30
0.0
 10
38.28411947244488
 20
-41.46598170591525
 30
0.0
 10
36.3074194724449
 20
-42.59858170591528
 30
0.0
  0
SPLINE
  5
B1
330
1F
100
AcDbEntity
  8
0
  6
Continuous
 62
     7
370
    25
100
AcDbSpline
210
0.0
220
0.0
230
1.0
 70
     8
 71
     3
 72
     8
 73
     4
 74
     0
 42
0.000000001
 43
0.00000001
 40
0.3289473684210527
 40
0.3289473684210527
 40
0.3289473684210527
 40
0.3289473684210527
 40
0.3421052631578947
 40
0.3421052631578947
 40
0.3421052631578947
 40
0.3421052631578947
 10
36.3074194724449
 20
-42.59858170591528
 30
0.0
 10
36.05801947244488
 20
-42.74158170591529
 30
0.0
 10
35.8514194724449
 20
-42.86008170591528
 30
0.0
 10
35.6165194724449
 20
-42.99558170591529
 30
0.0
  0
SPLINE
  5
B2
330
1F
100
AcDbEntity
  8
0
  6
Continuous
 62
     7
370
    25
100
AcDbSpline
210
0.0
220
0.0
230
1.0
 70
     8
 71
     3
 72
     8
 73
     4
 74
     0
 42
0.000000001
 43
0.00000001
 40
0.3421052631578947
 40
0.3421052631578947
 40
0.3421052631578947
 40
0.3421052631578947
 40
0.3552631578947368
 40
0.3552631578947368
 40
0.3552631578947368
 40
0.3552631578947368
 10
35.6165194724449
 20
-42.99558170591529
 30
0.0
 10
33.47351947244491
 20
-44.23068170591531
 30
0.0
 10
31.07231947244491
 20
-45.49778170591534
 30
0.0
 10
29.02471947244494
 20
-46.86978170591536
 30
0.0
  0
SPLINE
  5
B4
330
1F
100
AcDbEntity
  8
0
  6
Continuous
 62
     7
370
    25
100
AcDbSpline
210
0.0
220
0.0
230
1.0
 70
     8
 71
     3
 72
     8
 73
     4
 74
     0
 42
0.000000001
 43
0.00000001
 40
0.3684210526315789
 40
0.3684210526315789
 40
0.3684210526315789
 40
0.3684210526315789
 40
0.3815789473684211
 40
0.3815789473684211
 40
0.3815789473684211
 40
0.3815789473684211
 10
26.48631947244495
 20
-48.50108170591538
 30
0.0
 10
25.66341947244496
 20
-49.06138170591539
 30
0.0
 10
24.76021947244496
 20
-49.6181817059154
 30
0.0
 10
24.02971947244497
 20
-50.28568170591541
 30
0.0
  0
SPLINE
  5
B5
330
1F
100
AcDbEntity
  8
0
  6
Continuous
 62
     7
370
    25
100
AcDbSpline
210
0.0
220
0.0
230
1.0
 70
     8
 71
     3
 72
     8
 73
     4
 74
     0
 42
0.000000001
 43
0.00000001
 40
0.3815789473684211
 40
0.3815789473684211
 40
0.3815789473684211
 40
0.3815789473684211
 40
0.3947368421052632
 40
0.3947368421052632
 40
0.3947368421052632
 40
0.3947368421052632
 10
24.02971947244497
 20
-50.28568170591541
 30
0.0
 10
23.47541947244497
 20
-50.79218170591542
 30
0.0
 10
24.01171947244499
 20
-51.49598170591541
 30
0.0
 10
24.60271947244498
 20
-51.12068170591539
 30
0.0
  0
SPLINE
  5
B6
330
1F
100
AcDbEntity
  8
0
  6
Continuous
 62
     7
370
    25
100
AcDbSpline
210
0.0
220
0.0
230
1.0
 70
     8
 71
     3
 72
     8
 73
     4
 74
     0
 42
0.000000001
 43
0.00000001
 40
0.3947368421052632
 40
0.3947368421052632
 40
0.3947368421052632
 40
0.3947368421052632
 40
0.4078947368421053
 40
0.4078947368421053
 40
0.4078947368421053
 40
0.4078947368421053
 10
24.60271947244498
 20
-51.12068170591539
 30
0.0
 10
24.69821947244498
 20
-51.0600817059154
 30
0.0
 10
24.78591947244498
 20
-50.95368170591539
 30
0.0
 10
24.87961947244498
 20
-50.8821817059154
 30
0.0
  0
SPLINE
  5
B8
330
1F
100
AcDbEntity
  8
0
  6
Continuous
 62
     7
370
    25
100
AcDbSpline
210
0.0
220
0.0
230
1.0
 70
     8
 71
     3
 72
     8
 73
     4
 74
     0
 42
0.000000001
 43
0.00000001
 40
0.4210526315789473
 40
0.4210526315789473
 40
0.4210526315789473
 40
0.4210526315789473
 40
0.4342105263157895
 40
0.4342105263157895
 40
0.4342105263157895
 40
0.4342105263157895
 10
25.79921947244496
 20
-50.19828170591538
 30
0.0
 10
27.66451947244497
 20
-48.85368170591536
 30
0.0
 10
29.15181947244494
 20
-48.05548170591535
 30
0.0
 10
30.86221947244494
 20
-46.91678170591534
 30
0.0
  0
SPLINE
  5
BA
330
1F
100
AcDbEntity
  8
0
  6
Continuous
 62
     7
370
    25
100
AcDbSpline
210
0.0
220
0.0
230
1.0
 70
     8
 71
     3
 72
     8
 73
     4
 74
     0
 42
0.000000001
 43
0.00000001
 40
0.4473684210526316
 40
0.4473684210526316
 40
0.4473684210526316
 40
0.4473684210526316
 40
0.4605263157894737
 40
0.4605263157894737
 40
0.4605263157894737
 40
0.4605263157894737
 10
36.18571947244491
 20
-43.83188170591527
 30
0.0
 10
37.34381947244491
 20
-43.09878170591526
 30
0.0
 10
39.1901194724449
 20
-42.36198170591525
 30
0.0
 10
40.17741947244488
 20
-41.52888170591523
 30
0.0
  0
SPLINE
  5
BB
330
1F
100
AcDbEntity
  8
0
  6
Continuous
 62
     7
370
    25
100
AcDbSpline
210
0.0
220
0.0
230
1.0
 70
     8
 71
     3
 72
     8
 73
     4
 74
     0
 42
0.000000001
 43
0.00000001
 40
0.4605263157894737
 40
0.4605263157894737
 40
0.4605263157894737
 40
0.4605263157894737
 40
0.4736842105263158
 40
0.4736842105263158
 40
0.4736842105263158
 40
0.4736842105263158
 10
40.17741947244488
 20
-41.52888170591523
 30
0.0
 10
40.38031947244489
 20
-41.35768170591523
 30
0.0
 10
40.51371947244486
 20
-41.19828170591524
 30
0.0
 10
40.70791947244486
 20
-41.02828170591523
 30
0.0
  0
SPLINE
  5
BC
330
1F
100
AcDbEntity
  8
0
  6
Continuous
 62
     7
370
    25
100
AcDbSpline
210
0.0
220
0.0
230
1.0
 70
     8
 71
     3
 72
     8
 73
     4
 74
     0
 42
0.000000001
 43
0.00000001
 40
0.4736842105263158
 40
0.4736842105263158
 40
0.4736842105263158
 40
0.4736842105263158
 40
0.4868421052631579
 40
0.4868421052631579
 40
0.4868421052631579
 40
0.4868421052631579
 10
40.70791947244486
 20
-41.02828170591523
 30
0.0
 10
40.95241947244487
 20
-40.81428170591523
 30
0.0
 10
41.01961947244487
 20
-40.67608170591523
 30
0.0
 10
41.20441947244485
 20
-40.43238170591523
 30
0.0
  0
SPLINE
  5
BD
330
1F
100
AcDbEntity
  8
0
  6
Continuous
 62
     7
370
    25
100
AcDbSpline
210
0.0
220
0.0
230
1.0
 70
     8
 71
     3
 72
     8
 73
     4
 74
     0
 42
0.000000001
 43
0.00000001
 40
0.4868421052631579
 40
0.4868421052631579
 40
0.4868421052631579
 40
0.4868421052631579
 40
0.5
 40
0.5
 40
0.5
 40
0.5
 10
41.20441947244485
 20
-40.43238170591523
 30
0.0
 10
42.17771947244485
 20
-39.14908170591521
 30
0.0
 10
41.90241947244485
 20
-38.79998170591522
 30
0.0
 10
42.13321947244484
 20
-37.10238170591522
 30
0.0
  0
SPLINE
  5
BE
330
1F
100
AcDbEntity
  8
0
  6
Continuous
 62
     7
370
    25
100
AcDbSpline
210
0.0
220
0.0
230
1.0
 70
     8
 71
     3
 72
     8
 73
     4
 74
     0
 42
0.000000001
 43
0.00000001
 40
0.5
 40
0.5
 40
0.5
 40
0.5
 40
0.5131578947368421
 40
0.5131578947368421
 40
0.5131578947368421
 40
0.5131578947368421
 10
42.13321947244484
 20
-37.10238170591522
 30
0.0
 10
42.68891947244482
 20
-36.78548170591521
 30
0.0
 10
43.56051947244482
 20
-36.4761817059152
 30
0.0
 10
44.21371947244483
 20
-36.13038170591519
 30
0.0
  0
SPLINE
  5
BF
330
1F
100
AcDbEntity
  8
0
  6
Continuous
 62
     7
370
    25
100
AcDbSpline
210
0.0
220
0.0
230
1.0
 70
     8
 71
     3
 72
     8
 73
     4
 74
     0
 42
0.000000001
 43
0.00000001
 40
0.5131578947368421
 40
0.5131578947368421
 40
0.5131578947368421
 40
0.5131578947368421
 40
0.5263157894736842
 40
0.5263157894736842
 40
0.5263157894736842
 40
0.5263157894736842
 10
44.21371947244483
 20
-36.13038170591519
 30
0.0
 10
45.5191194724448
 20
-35.43918170591519
 30
0.0
 10
46.78101947244481
 20
-34.54748170591517
 30
0.0
 10
47.89711947244479
 20
-33.64988170591516
 30
0.0
  0
SPLINE
  5
C0
330
1F
100
AcDbEntity
  8
0
  6
Continuous
 62
     7
370
    25
100
AcDbSpline
210
0.0
220
0.0
230
1.0
 70
     8
 71
     3
 72
     8
 73
     4
 74
     0
 42
0.000000001
 43
0.00000001
 40
0.5263157894736842
 40
0.5263157894736842
 40
0.5263157894736842
 40
0.5263157894736842
 40
0.5394736842105263
 40
0.5394736842105263
 40
0.5394736842105263
 40
0.5394736842105263
 10
47.89711947244479
 20
-33.64988170591516
 30
0.0
 10
48.75711947244478
 20
-32.95818170591515
 30
0.0
 10
49.55511947244479
 20
-32.16998170591515
 30
0.0
 10
50.30821947244476
 20
-31.37398170591513
 30
0.0
  0
SPLINE
  5
C1
330
1F
100
AcDbEntity
  8
0
  6
Continuous
 62
     7
370
    25
100
AcDbSpline
210
0.0
220
0.0
230
1.0
 70
     8
 71
     3
 72
     8
 73
     4
 74
     0
 42
0.000000001
 43
0.00000001
 40
0.5394736842105263
 40
0.5394736842105263
 40
0.5394736842105263
 40
0.5394736842105263
 40
0.5526315789473685
 40
0.5526315789473685
 40
0.5526315789473685
 40
0.5526315789473685
 10
50.30821947244476
 20
-31.37398170591513
 30
0.0
 10
50.43361947244476
 20
-31.24138170591513
 30
0.0
 10
50.52231947244477
 20
-31.09258170591513
 30
0.0
 10
50.65731947244475
 20
-30.94808170591513
 30
0.0
  0
SPLINE
  5
C3
330
1F
100
AcDbEntity
  8
0
  6
Continuous
 62
     7
370
    25
100
AcDbSpline
210
0.0
220
0.0
230
1.0
 70
     8
 71
     3
 72
     8
 73
     4
 74
     0
 42
0.000000001
 43
0.00000001
 40
0.5657894736842105
 40
0.5657894736842105
 40
0.5657894736842105
 40
0.5657894736842105
 40
0.5789473684210527
 40
0.5789473684210527
 40
0.5789473684210527
 40
0.5789473684210527
 10
52.05211947244474
 20
-29.26378170591511
 30
0.0
 10
53.10421947244475
 20
-27.9030817059151
 30
0.0
 10
53.90891947244474
 20
-26.4779817059151
 30
0.0
 10
54.7482194724447
 20
-24.95858170591509
 30
0.0
  0
SPLINE
  5
C4
330
1F
100
AcDbEntity
  8
0
  6
Continuous
 62
     7
370
    25
100
AcDbSpline
210
0.0
220
0.0
230
1.0
 70
     8
 71
     3
 72
     8
 73
     4
 74
     0
 42
0.000000001
 43
0.00000001
 40
0.5789473684210527
 40
0.5789473684210527
 40
0.5789473684210527
 40
0.5789473684210527
 40
0.5921052631578947
 40
0.5921052631578947
 40
0.5921052631578947
 40
0.5921052631578947
 10
54.7482194724447
 20
-24.95858170591509
 30
0.0
 10
55.46151947244469
 20
-23.66728170591508
 30
0.0
 10
56.10051947244468
 20
-22.07938170591507
 30
0.0
 10
56.63461947244466
 20
-20.67848170591507
 30
0.0
  0
SPLINE
  5
C5
330
1F
100
AcDbEntity
  8
0
  6
Continuous
 62
     7
370
    25
100
AcDbSpline
210
0.0
220
0.0
230
1.0
 70
     8
 71
     3
 72
     8
 73
     4
 74
     0
 42
0.000000001
 43
0.00000001
 40
0.5921052631578947
 40
0.5921052631578947
 40
0.5921052631578947
 40
0.5921052631578947
 40
0.6052631578947368
 40
0.6052631578947368
 40
0.6052631578947368
 40
0.6052631578947368
 10
56.63461947244466
 20
-20.67848170591507
 30
0.0
 10
58.52571947244461
 20
-15.71858170591504
 30
0.0
 10
59.16271947244454
 20
-9.853781705915036
 30
0.0
 10
58.9305194724445
 20
-4.49208170591504
 30
0.0
  0
SPLINE
  5
C6
330
1F
100
AcDbEntity
  8
0
  6
Continuous
 62
     7
370
    25
100
AcDbSpline
210
0.0
220
0.0
230
1.0
 70
     8
 71
     3
 72
     8
 73
     4
 74
     0
 42
0.000000001
 43
0.00000001
 40
0.6052631578947368
 40
0.6052631578947368
 40
0.6052631578947368
 40
0.6052631578947368
 40
0.618421052631579
 40
0.618421052631579
 40
0.618421052631579
 40
0.618421052631579
 10
58.9305194724445
 20
-4.49208170591504
 30
0.0
 10
58.6279194724444
 20
2.493518294084958
 30
0.0
 10
56.33361947244436
 20
9.838818294084929
 30
0.0
 10
52.32591947244429
 20
15.22661829408489
 30
0.0
  0
SPLINE
  5
C8
330
1F
100
AcDbEntity
  8
0
  6
Continuous
 62
     7
370
    25
100
AcDbSpline
210
0.0
220
0.0
230
1.0
 70
     8
 71
     3
 72
     8
 73
     4
 74
     0
 42
0.000000001
 43
0.00000001
 40
0.631578947368421
 40
0.631578947368421
 40
0.631578947368421
 40
0.631578947368421
 40
0.6447368421052632
 40
0.6447368421052632
 40
0.6447368421052632
 40
0.6447368421052632
 10
50.24631947244428
 20
17.76751829408487
 30
0.0
 10
49.32031947244425
 20
18.78201829408486
 30
0.0
 10
48.14541947244423
 20
19.93271829408484
 30
0.0
 10
46.97791947244423
 20
20.72981829408483
 30
0.0
  0
SPLINE
  5
C9
330
1F
100
AcDbEntity
  8
0
  6
Continuous
 62
     7
370
    25
100
AcDbSpline
210
0.0
220
0.0
230
1.0
 70
     8
 71
     3
 72
     8
 73
     4
 74
     0
 42
0.000000001
 43
0.00000001
 40
0.6447368421052632
 40
0.6447368421052632
 40
0.6447368421052632
 40
0.6447368421052632
 40
0.6578947368421053
 40
0.6578947368421053
 40
0.6578947368421053
 40
0.6578947368421053
 10
46.97791947244423
 20
20.72981829408483
 30
0.0
 10
46.81551947244422
 20
20.84061829408484
 30
0.0
 10
46.72071947244422
 20
20.91891829408483
 30
0.0
 10
46.53641947244423
 20
21.06031829408483
 30
0.0
  0
SPLINE
  5
CA
330
1F
100
AcDbEntity
  8
0
  6
Continuous
 62
     7
370
    25
100
AcDbSpline
210
0.0
220
0.0
230
1.0
 70
     8
 71
     3
 72
     8
 73
     4
 74
     0
 42
0.000000001
 43
0.00000001
 40
0.6578947368421053
 40
0.6578947368421053
 40
0.6578947368421053
 40
0.6578947368421053
 40
0.6710526315789473
 40
0.6710526315789473
 40
0.6710526315789473
 40
0.6710526315789473
 10
46.53641947244423
 20
21.06031829408483
 30
0.0
 10
45.99131947244422
 20
21.47861829408482
 30
0.0
 10
44.7407194724442
 20
22.18411829408481
 30
0.0
 10
44.1322194724442
 20
22.5030182940848
 30
0.0
  0
SPLINE
  5
CB
330
1F
100
AcDbEntity
  8
0
  6
Continuous
 62
     7
370
    25
100
AcDbSpline
210
0.0
220
0.0
230
1.0
 70
     8
 71
     3
 72
     8
 73
     4
 74
     0
 42
0.000000001
 43
0.00000001
 40
0.6710526315789473
 40
0.6710526315789473
 40
0.6710526315789473
 40
0.6710526315789473
 40
0.6842105263157895
 40
0.6842105263157895
 40
0.6842105263157895
 40
0.6842105263157895
 10
44.1322194724442
 20
22.5030182940848
 30
0.0
 10
42.3220194724442
 20
23.45191829408479
 30
0.0
 10
40.5093194724442
 20
24.10531829408477
 30
0.0
 10
38.25401947244419
 20
24.45651829408474
 30
0.0
  0
SPLINE
  5
CC
330
1F
100
AcDbEntity
  8
0
  6
Continuous
 62
     7
370
    25
100
AcDbSpline
210
0.0
220
0.0
230
1.0
 70
     8
 71
     3
 72
     8
 73
     4
 74
     0
 42
0.000000001
 43
0.00000001
 40
0.6842105263157895
 40
0.6842105263157895
 40
0.6842105263157895
 40
0.6842105263157895
 40
0.6973684210526315
 40
0.6973684210526315
 40
0.6973684210526315
 40
0.6973684210526315
 10
38.25401947244419
 20
24.45651829408474
 30
0.0
 10
33.94331947244418
 20
25.12761829408471
 30
0.0
 10
29.1307194724442
 20
23.98071829408464
 30
0.0
 10
25.79031947244422
 20
21.71631829408462
 30
0.0
  0
SPLINE
  5
CE
330
1F
100
AcDbEntity
  8
0
  6
Continuous
 62
     7
370
    25
100
AcDbSpline
210
0.0
220
0.0
230
1.0
 70
     8
 71
     3
 72
     8
 73
     4
 74
     0
 42
0.000000001
 43
0.00000001
 40
0.7105263157894737
 40
0.7105263157894737
 40
0.7105263157894737
 40
0.7105263157894737
 40
0.7236842105263158
 40
0.7236842105263158
 40
0.7236842105263158
 40
0.7236842105263158
 10
24.40821947244422
 20
20.78411829408461
 30
0.0
 10
24.22971947244422
 20
20.65451829408459
 30
0.0
 10
24.13821947244423
 20
20.58351829408459
 30
0.0
 10
23.97771947244424
 20
20.44741829408459
 30
0.0
  0
SPLINE
  5
CF
330
1F
100
AcDbEntity
  8
0
  6
Continuous
 62
     7
370
    25
100
AcDbSpline
210
0.0
220
0.0
230
1.0
 70
     8
 71
     3
 72
     8
 73
     4
 74
     0
 42
0.000000001
 43
0.00000001
 40
0.7236842105263158
 40
0.7236842105263158
 40
0.7236842105263158
 40
0.7236842105263158
 40
0.7368421052631579
 40
0.7368421052631579
 40
0.7368421052631579
 40
0.7368421052631579
 10
23.97771947244424
 20
20.44741829408459
 30
0.0
 10
23.79171947244425
 20
20.2898182940846
 30
0.0
 10
23.69691947244424
 20
20.20861829408459
 30
0.0
 10
23.56061947244423
 20
20.09281829408459
 30
0.0
  0
SPLINE
  5
D0
330
1F
100
AcDbEntity
  8
0
  6
Continuous
 62
     7
370
    25
100
AcDbSpline
210
0.0
220
0.0
230
1.0
 70
     8
 71
     3
 72
     8
 73
     4
 74
     0
 42
0.000000001
 43
0.00000001
 40
0.7368421052631579
 40
0.7368421052631579
 40
0.7368421052631579
 40
0.7368421052631579
 40
0.75
 40
0.75
 40
0.75
 40
0.75
 10
23.56061947244423
 20
20.09281829408459
 30
0.0
 10
23.37221947244423
 20
19.93261829408459
 30
0.0
 10
23.31861947244424
 20
19.91731829408458
 30
0.0
 10
23.13801947244424
 20
19.74211829408459
 30
0.0
  0
SPLINE
  5
D1
330
1F
100
AcDbEntity
  8
0
  6
Continuous
 62
     7
370
    25
100
AcDbSpline
210
0.0
220
0.0
230
1.0
 70
     8
 71
     3
 72
     8
 73
     4
 74
     0
 42
0.000000001
 43
0.00000001
 40
0.75
 40
0.75
 40
0.75
 40
0.75
 40
0.7631578947368421
 40
0.7631578947368421
 40
0.7631578947368421
 40
0.7631578947368421
 10
23.13801947244424
 20
19.74211829408459
 30
0.0
 10
22.91591947244423
 20
19.52661829408458
 30
0.0
 10
22.90761947244424
 20
19.61821829408457
 30
0.0
 10
22.71081947244424
 20
19.39991829408459
 30
0.0
  0
SPLINE
  5
D2
330
1F
100
AcDbEntity
  8
0
  6
Continuous
 62
     7
370
    25
100
AcDbSpline
210
0.0
220
0.0
230
1.0
 70
     8
 71
     3
 72
     8
 73
     4
 74
     0
 42
0.000000001
 43
0.00000001
 40
0.7631578947368421
 40
0.7631578947368421
 40
0.7631578947368421
 40
0.7631578947368421
 40
0.7763157894736842
 40
0.7763157894736842
 40
0.7763157894736842
 40
0.7763157894736842
 10
22.71081947244424
 20
19.39991829408459
 30
0.0
 10
22.09551947244425
 20
18.71741829408457
 30
0.0
 10
21.34471947244426
 20
18.17371829408456
 30
0.0
 10
20.75781947244427
 20
17.43531829408455
 30
0.0
  0
SPLINE
  5
D3
330
1F
100
AcDbEntity
  8
0
  6
Continuous
 62
     7
370
    25
100
AcDbSpline
210
0.0
220
0.0
230
1.0
 70
     8
 71
     3
 72
     8
 73
     4
 74
     0
 42
0.000000001
 43
0.00000001
 40
0.7763157894736842
 40
0.7763157894736842
 40
0.7763157894736842
 40
0.7763157894736842
 40
0.7894736842105263
 40
0.7894736842105263
 40
0.7894736842105263
 40
0.7894736842105263
 10
20.75781947244427
 20
17.43531829408455
 30
0.0
 10
20.29741947244426
 20
16.85601829408456
 30
0.0
 10
19.80231947244428
 20
16.35591829408455
 30
0.0
 10
19.37061947244428
 20
15.73931829408455
 30
0.0
  0
SPLINE
  5
D5
330
1F
100
AcDbEntity
  8
0
  6
Continuous
 62
     7
370
    25
100
AcDbSpline
210
0.0
220
0.0
230
1.0
 70
     8
 71
     3
 72
     8
 73
     4
 74
     0
 42
0.000000001
 43
0.00000001
 40
0.8026315789473685
 40
0.8026315789473685
 40
0.8026315789473685
 40
0.8026315789473685
 40
0.8157894736842105
 40
0.8157894736842105
 40
0.8157894736842105
 40
0.8157894736842105
 10
18.10461947244431
 20
13.92361829408453
 30
0.0
 10
16.39281947244432
 20
11.34701829408451
 30
0.0
 10
15.13871947244436
 20
8.4190182940845
 30
0.0
 10
14.15591947244438
 20
5.416518294084488
 30
0.0
  0
SPLINE
  5
D6
330
1F
100
AcDbEntity
  8
0
  6
Continuous
 62
     7
370
    25
100
AcDbSpline
210
0.0
220
0.0
230
1.0
 70
     8
 71
     3
 72
     8
 73
     4
 74
     0
 42
0.000000001
 43
0.00000001
 40
0.8157894736842105
 40
0.8157894736842105
 40
0.8157894736842105
 40
0.8157894736842105
 40
0.8289473684210527
 40
0.8289473684210527
 40
0.8289473684210527
 40
0.8289473684210527
 10
14.15591947244438
 20
5.416518294084488
 30
0.0
 10
13.7057194724444
 20
4.041218294084485
 30
0.0
 10
13.15991947244441
 20
1.94711829408447
 30
0.0
 10
12.95001947244444
 20
0.399018294084473
 30
0.0
  0
SPLINE
  5
D7
330
1F
100
AcDbEntity
  8
0
  6
Continuous
 62
     7
370
    25
100
AcDbSpline
210
0.0
220
0.0
230
1.0
 70
     8
 71
     3
 72
     8
 73
     4
 74
     0
 42
0.000000001
 43
0.00000001
 40
0.8289473684210527
 40
0.8289473684210527
 40
0.8289473684210527
 40
0.8289473684210527
 40
0.8421052631578947
 40
0.8421052631578947
 40
0.8421052631578947
 40
0.8421052631578947
 10
12.95001947244444
 20
0.399018294084473
 30
0.0
 10
12.68801947244446
 20
-1.532581705915526
 30
0.0
 10
12.43451947244448
 20
-3.202781705915526
 30
0.0
 10
12.3656194724445
 20
-5.197681705915533
 30
0.0
  0
SPLINE
  5
D8
330
1F
100
AcDbEntity
  8
0
  6
Continuous
 62
     7
370
    25
100
AcDbSpline
210
0.0
220
0.0
230
1.0
 70
     8
 71
     3
 72
     8
 73
     4
 74
     0
 42
0.000000001
 43
0.00000001
 40
0.8421052631578947
 40
0.8421052631578947
 40
0.8421052631578947
 40
0.8421052631578947
 40
0.8552631578947368
 40
0.8552631578947368
 40
0.8552631578947368
 40
0.8552631578947368
 10
12.3656194724445
 20
-5.197681705915533
 30
0.0
 10
12.29281947244452
 20
-7.307181705915534
 30
0.0
 10
12.38581947244454
 20
-9.164581705915529
 30
0.0
 10
12.56061947244455
 20
-11.23198170591553
 30
0.0
  0
SPLINE
  5
D9
330
1F
100
AcDbEntity
  8
0
  6
Continuous
 62
     7
370
    25
100
AcDbSpline
210
0.0
220
0.0
230
1.0
 70
     8
 71
     3
 72
     8
 73
     4
 74
     0
 42
0.000000001
 43
0.00000001
 40
0.8552631578947368
 40
0.8552631578947368
 40
0.8552631578947368
 40
0.8552631578947368
 40
0.868421052631579
 40
0.868421052631579
 40
0.868421052631579
 40
0.868421052631579
 10
12.56061947244455
 20
-11.23198170591553
 30
0.0
 10
12.63921947244457
 20
-12.16198170591553
 30
0.0
 10
12.82101947244458
 20
-13.04208170591552
 30
0.0
 10
12.93751947244459
 20
-13.95268170591553
 30
0.0
  0
SPLINE
  5
DA
330
1F
100
AcDbEntity
  8
0
  6
Continuous
 62
     7
370
    25
100
AcDbSpline
210
0.0
220
0.0
230
1.0
 70
     8
 71
     3
 72
     8
 73
     4
 74
     0
 42
0.000000001
 43
0.00000001
 40
0.868421052631579
 40
0.868421052631579
 40
0.868421052631579
 40
0.868421052631579
 40
0.881578947368421
 40
0.881578947368421
 40
0.881578947368421
 40
0.881578947368421
 10
12.93751947244459
 20
-13.95268170591553
 30
0.0
 10
13.1780194724446
 20
-15.83108170591552
 30
0.0
 10
14.17891947244464
 20
-19.53628170591551
 30
0.0
 10
14.92051947244467
 20
-21.2728817059155
 30
0.0
  0
SPLINE
  5
DB
330
1F
100
AcDbEntity
  8
0
  6
Continuous
 62
     7
370
    25
100
AcDbSpline
210
0.0
220
0.0
230
1.0
 70
     8
 71
     3
 72
     8
 73
     4
 74
     0
 42
0.000000001
 43
0.00000001
 40
0.881578947368421
 40
0.881578947368421
 40
0.881578947368421
 40
0.881578947368421
 40
0.8947368421052632
 40
0.8947368421052632
 40
0.8947368421052632
 40
0.8947368421052632
 10
14.92051947244467
 20
-21.2728817059155
 30
0.0
 10
16.1048194724447
 20
-24.04608170591549
 30
0.0
 10
17.12021947244472
 20
-26.35118170591548
 30
0.0
 10
18.95711947244475
 20
-28.79378170591546
 30
0.0
  0
SPLINE
  5
DC
330
1F
100
AcDbEntity
  8
0
  6
Continuous
 62
     7
370
    25
100
AcDbSpline
210
0.0
220
0.0
230
1.0
 70
     8
 71
     3
 72
     8
 73
     4
 74
     0
 42
0.000000001
 43
0.00000001
 40
0.8947368421052632
 40
0.8947368421052632
 40
0.8947368421052632
 40
0.8947368421052632
 40
0.9078947368421053
 40
0.9078947368421053
 40
0.9078947368421053
 40
0.9078947368421053
 10
18.95711947244475
 20
-28.79378170591546
 30
0.0
 10
19.08811947244475
 20
-28.96798170591546
 30
0.0
 10
19.15431947244475
 20
-29.09488170591546
 30
0.0
 10
19.30201947244475
 20
-29.28588170591546
 30
0.0
  0
SPLINE
  5
DE
330
1F
100
AcDbEntity
  8
0
  6
Continuous
 62
     7
370
    25
100
AcDbSpline
210
0.0
220
0.0
230
1.0
 70
     8
 71
     3
 72
     8
 73
     4
 74
     0
 42
0.000000001
 43
0.00000001
 40
0.9210526315789473
 40
0.9210526315789473
 40
0.9210526315789473
 40
0.9210526315789473
 40
0.9342105263157895
 40
0.9342105263157895
 40
0.9342105263157895
 40
0.9342105263157895
 10
20.32781947244476
 20
-30.56868170591545
 30
0.0
 10
20.48011947244477
 20
-30.73738170591545
 30
0.0
 10
20.51741947244475
 20
-30.80008170591545
 30
0.0
 10
20.69331947244477
 20
-30.97638170591544
 30
0.0
  0
SPLINE
  5
DF
330
1F
100
AcDbEntity
  8
0
  6
Continuous
 62
     7
370
    25
100
AcDbSpline
210
0.0
220
0.0
230
1.0
 70
     8
 71
     3
 72
     8
 73
     4
 74
     0
 42
0.000000001
 43
0.00000001
 40
0.9342105263157895
 40
0.9342105263157895
 40
0.9342105263157895
 40
0.9342105263157895
 40
0.9473684210526315
 40
0.9473684210526315
 40
0.9473684210526315
 40
0.9473684210526315
 10
20.69331947244477
 20
-30.97638170591544
 30
0.0
 10
20.97331947244477
 20
-31.25688170591544
 30
0.0
 10
21.08151947244477
 20
-31.46368170591544
 30
0.0
 10
21.42911947244478
 20
-31.77868170591543
 30
0.0
  0
SPLINE
  5
E0
330
1F
100
AcDbEntity
  8
0
  6
Continuous
 62
     7
370
    25
100
AcDbSpline
210
0.0
220
0.0
230
1.0
 70
     8
 71
     3
 72
     8
 73
     4
 74
     0
 42
0.000000001
 43
0.00000001
 40
0.9473684210526315
 40
0.9473684210526315
 40
0.9473684210526315
 40
0.9473684210526315
 40
0.9605263157894737
 40
0.9605263157894737
 40
0.9605263157894737
 40
0.9605263157894737
 10
21.42911947244478
 20
-31.77868170591543
 30
0.0
 10
21.73721947244478
 20
-32.05788170591543
 30
0.0
 10
21.92441947244479
 20
-32.27238170591543
 30
0.0
 10
22.22481947244479
 20
-32.59268170591543
 30
0.0
  0
SPLINE
  5
E1
330
1F
100
AcDbEntity
  8
0
  6
Continuous
 62
     7
370
    25
100
AcDbSpline
210
0.0
220
0.0
230
1.0
 70
     8
 71
     3
 72
     8
 73
     4
 74
     0
 42
0.000000001
 43
0.00000001
 40
0.9605263157894737
 40
0.9605263157894737
 40
0.9605263157894737
 40
0.9605263157894737
 40
0.9736842105263158
 40
0.9736842105263158
 40
0.9736842105263158
 40
0.9736842105263158
 10
22.22481947244479
 20
-32.59268170591543
 30
0.0
 10
22.50201947244478
 20
-32.88838170591542
 30
0.0
 10
23.7796194724448
 20
-33.84328170591541
 30
0.0
 10
23.84511947244481
 20
-34.04518170591541
 30
0.0
  0
SPLINE
  5
E2
330
1F
100
AcDbEntity
  8
0
  6
Continuous
 62
     7
370
    25
100
AcDbSpline
210
0.0
220
0.0
230
1.0
 70
     8
 71
     3
 72
     8
 73
     4
 74
     0
 42
0.000000001
 43
0.00000001
 40
0.9210526315789473
 40
0.9210526315789473
 40
0.9210526315789473
 40
0.9210526315789473
 40
0.9473684210526315
 40
0.9473684210526315
 40
0.9473684210526315
 40
0.9473684210526315
 10
36.20741947244464
 20
-18.61278170591528
 30
0.0
 10
35.77921947244465
 20
-18.66378170591528
 30
0.0
 10
35.79591947244465
 20
-18.97658170591528
 30
0.0
 10
35.71031947244465
 20
-19.41948170591529
 30
0.0
  0
SPLINE
  5
E4
330
1F
100
AcDbEntity
  8
0
  6
Continuous
 62
     7
370
    25
100
AcDbSpline
210
0.0
220
0.0
230
1.0
 70
     8
 71
     3
 72
     8
 73
     4
 74
     0
 42
0.000000001
 43
0.00000001
 40
0.0
 40
0.0
 40
0.0
 40
0.0
 40
0.0263157894736842
 40
0.0263157894736842
 40
0.0263157894736842
 40
0.0263157894736842
 10
34.10081947244473
 20
-27.0587817059153
 30
0.0
 10
33.97911947244472
 20
-26.87958170591531
 30
0.0
 10
33.37791947244473
 20
-26.60578170591531
 30
0.0
 10
32.98881947244472
 20
-26.58168170591532
 30
0.0
  0
SPLINE
  5
E5
330
1F
100
AcDbEntity
  8
0
  6
Continuous
 62
     7
370
    25
100
AcDbSpline
210
0.0
220
0.0
230
1.0
 70
     8
 71
     3
 72
     8
 73
     4
 74
     0
 42
0.000000001
 43
0.00000001
 40
0.0526315789473684
 40
0.0526315789473684
 40
0.0526315789473684
 40
0.0526315789473684
 40
0.0789473684210526
 40
0.0789473684210526
 40
0.0789473684210526
 40
0.0789473684210526
 10
30.70031947244473
 20
-27.61798170591534
 30
0.0
 10
30.51531947244473
 20
-27.79018170591534
 30
0.0
 10
30.07241947244474
 20
-28.19398170591534
 30
0.0
 10
29.88171947244474
 20
-28.46098170591535
 30
0.0
  0
SPLINE
  5
E6
330
1F
100
AcDbEntity
  8
0
  6
Continuous
 62
     7
370
    25
100
AcDbSpline
210
0.0
220
0.0
230
1.0
 70
     8
 71
     3
 72
     8
 73
     4
 74
     0
 42
0.000000001
 43
0.00000001
 40
0.0789473684210526
 40
0.0789473684210526
 40
0.0789473684210526
 40
0.0789473684210526
 40
0.1052631578947368
 40
0.1052631578947368
 40
0.1052631578947368
 40
0.1052631578947368
 10
29.88171947244474
 20
-28.46098170591535
 30
0.0
 10
29.68171947244473
 20
-28.17038170591535
 30
0.0
 10
29.53971947244474
 20
-27.87528170591535
 30
0.0
 10
29.20361947244473
 20
-27.66558170591535
 30
0.0
  0
SPLINE
  5
E7
330
1F
100
AcDbEntity
  8
0
  6
Continuous
 62
     7
370
    25
100
AcDbSpline
210
0.0
220
0.0
230
1.0
 70
     8
 71
     3
 72
     8
 73
     4
 74
     0
 42
0.000000001
 43
0.00000001
 40
0.1052631578947368
 40
0.1052631578947368
 40
0.1052631578947368
 40
0.1052631578947368
 40
0.131578947368421
 40
0.131578947368421
 40
0.131578947368421
 40
0.131578947368421
 10
29.20361947244473
 20
-27.66558170591535
 30
0.0
 10
28.38431947244473
 20
-27.15428170591536
 30
0.0
 10
27.68541947244473
 20
-27.33808170591537
 30
0.0
 10
26.90891947244474
 20
-27.87038170591538
 30
0.0
  0
SPLINE
  5
E8
330
1F
100
AcDbEntity
  8
0
  6
Continuous
 62
     7
370
    25
100
AcDbSpline
210
0.0
220
0.0
230
1.0
 70
     8
 71
     3
 72
     8
 73
     4
 74
     0
 42
0.000000001
 43
0.00000001
 40
0.1578947368421053
 40
0.1578947368421053
 40
0.1578947368421053
 40
0.1578947368421053
 40
0.1842105263157895
 40
0.1842105263157895
 40
0.1842105263157895
 40
0.1842105263157895
 10
25.04511947244476
 20
-30.5655817059154
 30
0.0
 10
24.29171947244479
 20
-31.69648170591541
 30
0.0
 10
24.48531947244478
 20
-31.55978170591541
 30
0.0
 10
24.00521947244479
 20
-32.58408170591541
 30
0.0
  0
SPLINE
  5
E9
330
1F
100
AcDbEntity
  8
0
  6
Continuous
 62
     7
370
    25
100
AcDbSpline
210
0.0
220
0.0
230
1.0
 70
     8
 71
     3
 72
     8
 73
     4
 74
     0
 42
0.000000001
 43
0.00000001
 40
0.1842105263157895
 40
0.1842105263157895
 40
0.1842105263157895
 40
0.1842105263157895
 40
0.2105263157894737
 40
0.2105263157894737
 40
0.2105263157894737
 40
0.2105263157894737
 10
24.00521947244479
 20
-32.58408170591541
 30
0.0
 10
23.60421947244479
 20
-32.28988170591541
 30
0.0
 10
23.17981947244478
 20
-31.88478170591542
 30
0.0
 10
22.82941947244477
 20
-31.53638170591542
 30
0.0
  0
SPLINE
  5
EA
330
1F
100
AcDbEntity
  8
0
  6
Continuous
 62
     7
370
    25
100
AcDbSpline
210
0.0
220
0.0
230
1.0
 70
     8
 71
     3
 72
     8
 73
     4
 74
     0
 42
0.000000001
 43
0.00000001
 40
0.2105263157894737
 40
0.2105263157894737
 40
0.2105263157894737
 40
0.2105263157894737
 40
0.2368421052631579
 40
0.2368421052631579
 40
0.2368421052631579
 40
0.2368421052631579
 10
22.82941947244477
 20
-31.53638170591542
 30
0.0
 10
20.57671947244475
 20
-29.29628170591544
 30
0.0
 10
19.13081947244472
 20
-27.21918170591546
 30
0.0
 10
17.5994194724447
 20
-24.38028170591548
 30
0.0
  0
SPLINE
  5
EB
330
1F
100
AcDbEntity
  8
0
  6
Continuous
 62
     7
370
    25
100
AcDbSpline
210
0.0
220
0.0
230
1.0
 70
     8
 71
     3
 72
     8
 73
     4
 74
     0
 42
0.000000001
 43
0.00000001
 40
0.2368421052631579
 40
0.2368421052631579
 40
0.2368421052631579
 40
0.2368421052631579
 40
0.2631578947368421
 40
0.2631578947368421
 40
0.2631578947368421
 40
0.2631578947368421
 10
17.5994194724447
 20
-24.38028170591548
 30
0.0
 10
17.46901947244469
 20
-24.13848170591547
 30
0.0
 10
17.3241194724447
 20
-23.85728170591548
 30
0.0
 10
17.20591947244469
 20
-23.61618170591548
 30
0.0
  0
SPLINE
  5
ED
330
1F
100
AcDbEntity
  8
0
  6
Continuous
 62
     7
370
    25
100
AcDbSpline
210
0.0
220
0.0
230
1.0
 70
     8
 71
     3
 72
     8
 73
     4
 74
     0
 42
0.000000001
 43
0.00000001
 40
0.2894736842105263
 40
0.2894736842105263
 40
0.2894736842105263
 40
0.2894736842105263
 40
0.3157894736842105
 40
0.3157894736842105
 40
0.3157894736842105
 40
0.3157894736842105
 10
15.84271947244466
 20
-20.42348170591549
 30
0.0
 10
13.33911947244459
 20
-13.49098170591552
 30
0.0
 10
12.7550194724445
 20
-5.466581705915522
 30
0.0
 10
14.39811947244442
 20
1.726218294084501
 30
0.0
  0
SPLINE
  5
EE
330
1F
100
AcDbEntity
  8
0
  6
Continuous
 62
     7
370
    25
100
AcDbSpline
210
0.0
220
0.0
230
1.0
 70
     8
 71
     3
 72
     8
 73
     4
 74
     0
 42
0.000000001
 43
0.00000001
 40
0.3157894736842105
 40
0.3157894736842105
 40
0.3157894736842105
 40
0.3157894736842105
 40
0.3421052631578947
 40
0.3421052631578947
 40
0.3421052631578947
 40
0.3421052631578947
 10
14.39811947244442
 20
1.726218294084501
 30
0.0
 10
14.87281947244441
 20
3.804718294084498
 30
0.0
 10
15.70841947244437
 20
6.935118294084504
 30
0.0
 10
16.67141947244436
 20
8.81781829408452
 30
0.0
  0
SPLINE
  5
EF
330
1F
100
AcDbEntity
  8
0
  6
Continuous
 62
     7
370
    25
100
AcDbSpline
210
0.0
220
0.0
230
1.0
 70
     8
 71
     3
 72
     8
 73
     4
 74
     0
 42
0.000000001
 43
0.00000001
 40
0.3421052631578947
 40
0.3421052631578947
 40
0.3421052631578947
 40
0.3421052631578947
 40
0.3684210526315789
 40
0.3684210526315789
 40
0.3684210526315789
 40
0.3684210526315789
 10
16.67141947244436
 20
8.81781829408452
 30
0.0
 10
17.20771947244434
 20
9.86611829408452
 30
0.0
 10
17.63521947244433
 20
10.97611829408453
 30
0.0
 10
18.24401947244431
 20
11.93011829408452
 30
0.0
  0
SPLINE
  5
F1
330
1F
100
AcDbEntity
  8
0
  6
Continuous
 62
     7
370
    25
100
AcDbSpline
210
0.0
220
0.0
230
1.0
 70
     8
 71
     3
 72
     8
 73
     4
 74
     0
 42
0.000000001
 43
0.00000001
 40
0.3947368421052632
 40
0.3947368421052632
 40
0.3947368421052632
 40
0.3947368421052632
 40
0.4210526315789473
 40
0.4210526315789473
 40
0.4210526315789473
 40
0.4210526315789473
 10
20.09721947244428
 20
14.76311829408456
 30
0.0
 10
22.62901947244426
 20
18.29111829408458
 30
0.0
 10
26.53691947244422
 20
21.44151829408462
 30
0.0
 10
30.82891947244421
 20
22.76251829408466
 30
0.0
  0
SPLINE
  5
F2
330
1F
100
AcDbEntity
  8
0
  6
Continuous
 62
     7
370
    25
100
AcDbSpline
210
0.0
220
0.0
230
1.0
 70
     8
 71
     3
 72
     8
 73
     4
 74
     0
 42
0.000000001
 43
0.00000001
 40
0.4210526315789473
 40
0.4210526315789473
 40
0.4210526315789473
 40
0.4210526315789473
 40
0.4473684210526316
 40
0.4473684210526316
 40
0.4473684210526316
 40
0.4473684210526316
 10
30.82891947244421
 20
22.76251829408466
 30
0.0
 10
33.69501947244419
 20
23.64461829408469
 30
0.0
 10
36.06481947244421
 20
23.67671829408472
 30
0.0
 10
39.10851947244419
 20
23.12331829408475
 30
0.0
  0
SPLINE
  5
F3
330
1F
100
AcDbEntity
  8
0
  6
Continuous
 62
     7
370
    25
100
AcDbSpline
210
0.0
220
0.0
230
1.0
 70
     8
 71
     3
 72
     8
 73
     4
 74
     0
 42
0.000000001
 43
0.00000001
 40
0.4473684210526316
 40
0.4473684210526316
 40
0.4473684210526316
 40
0.4473684210526316
 40
0.4736842105263158
 40
0.4736842105263158
 40
0.4736842105263158
 40
0.4736842105263158
 10
39.10851947244419
 20
23.12331829408475
 30
0.0
 10
40.5655194724442
 20
22.85851829408476
 30
0.0
 10
42.9014194724442
 20
22.00821829408479
 30
0.0
 10
44.17391947244423
 20
21.20081829408481
 30
0.0
  0
SPLINE
  5
F4
330
1F
100
AcDbEntity
  8
0
  6
Continuous
 62
     7
370
    25
100
AcDbSpline
210
0.0
220
0.0
230
1.0
 70
     8
 71
     3
 72
     8
 73
     4
 74
     0
 42
0.000000001
 43
0.00000001
 40
0.4736842105263158
 40
0.4736842105263158
 40
0.4736842105263158
 40
0.4736842105263158
 40
0.5
 40
0.5
 40
0.5
 40
0.5
 10
44.17391947244423
 20
21.20081829408481
 30
0.0
 10
46.76171947244424
 20
19.55881829408483
 30
0.0
 10
47.65061947244424
 20
18.83171829408484
 30
0.0
 10
49.90511947244428
 20
16.40331829408487
 30
0.0
  0
SPLINE
  5
F5
330
1F
100
AcDbEntity
  8
0
  6
Continuous
 62
     7
370
    25
100
AcDbSpline
210
0.0
220
0.0
230
1.0
 70
     8
 71
     3
 72
     8
 73
     4
 74
     0
 42
0.000000001
 43
0.00000001
 40
0.5
 40
0.5
 40
0.5
 40
0.5
 40
0.5263157894736842
 40
0.5263157894736842
 40
0.5263157894736842
 40
0.5263157894736842
 10
49.90511947244428
 20
16.40331829408487
 30
0.0
 10
50.16261947244428
 20
16.12601829408487
 30
0.0
 10
50.22871947244428
 20
16.01951829408487
 30
0.0
 10
50.46291947244428
 20
15.73881829408488
 30
0.0
  0
SPLINE
  5
F7
330
1F
100
AcDbEntity
  8
0
  6
Continuous
 62
     7
370
    25
100
AcDbSpline
210
0.0
220
0.0
230
1.0
 70
     8
 71
     3
 72
     8
 73
     4
 74
     0
 42
0.000000001
 43
0.00000001
 40
0.5526315789473685
 40
0.5526315789473685
 40
0.5526315789473685
 40
0.5526315789473685
 40
0.5789473684210527
 40
0.5789473684210527
 40
0.5789473684210527
 40
0.5789473684210527
 10
52.18191947244431
 20
13.41801829408488
 30
0.0
 10
52.95511947244433
 20
12.0946182940849
 30
0.0
 10
53.30231947244433
 20
11.6069182940849
 30
0.0
 10
54.07181947244434
 20
10.0470182940849
 30
0.0
  0
SPLINE
  5
F8
330
1F
100
AcDbEntity
  8
0
  6
Continuous
 62
     7
370
    25
100
AcDbSpline
210
0.0
220
0.0
230
1.0
 70
     8
 71
     3
 72
     8
 73
     4
 74
     0
 42
0.000000001
 43
0.00000001
 40
0.5789473684210527
 40
0.5789473684210527
 40
0.5789473684210527
 40
0.5789473684210527
 40
0.6052631578947368
 40
0.6052631578947368
 40
0.6052631578947368
 40
0.6052631578947368
 10
54.07181947244434
 20
10.0470182940849
 30
0.0
 10
56.29411947244439
 20
5.542618294084929
 30
0.0
 10
57.60871947244445
 20
0.2228182940849435
 30
0.0
 10
57.78791947244448
 20
-4.948581705915056
 30
0.0
  0
SPLINE
  5
F9
330
1F
100
AcDbEntity
  8
0
  6
Continuous
 62
     7
370
    25
100
AcDbSpline
210
0.0
220
0.0
230
1.0
 70
     8
 71
     3
 72
     8
 73
     4
 74
     0
 42
0.000000001
 43
0.00000001
 40
0.6052631578947368
 40
0.6052631578947368
 40
0.6052631578947368
 40
0.6052631578947368
 40
0.631578947368421
 40
0.631578947368421
 40
0.631578947368421
 40
0.631578947368421
 10
57.78791947244448
 20
-4.948581705915056
 30
0.0
 10
57.91371947244454
 20
-8.57868170591505
 30
0.0
 10
57.77851947244456
 20
-10.19958170591505
 30
0.0
 10
57.26731947244458
 20
-13.61538170591506
 30
0.0
  0
SPLINE
  5
FA
330
1F
100
AcDbEntity
  8
0
  6
Continuous
 62
     7
370
    25
100
AcDbSpline
210
0.0
220
0.0
230
1.0
 70
     8
 71
     3
 72
     8
 73
     4
 74
     0
 42
0.000000001
 43
0.00000001
 40
0.631578947368421
 40
0.631578947368421
 40
0.631578947368421
 40
0.631578947368421
 40
0.6578947368421053
 40
0.6578947368421053
 40
0.6578947368421053
 40
0.6578947368421053
 10
57.26731947244458
 20
-13.61538170591506
 30
0.0
 10
56.41251947244464
 20
-19.32798170591507
 30
0.0
 10
54.1530194724447
 20
-24.36708170591509
 30
0.0
 10
51.17581947244474
 20
-28.45348170591512
 30
0.0
  0
SPLINE
  5
FB
330
1F
100
AcDbEntity
  8
0
  6
Continuous
 62
     7
370
    25
100
AcDbSpline
210
0.0
220
0.0
230
1.0
 70
     8
 71
     3
 72
     8
 73
     4
 74
     0
 42
0.000000001
 43
0.00000001
 40
0.6578947368421053
 40
0.6578947368421053
 40
0.6578947368421053
 40
0.6578947368421053
 40
0.6842105263157895
 40
0.6842105263157895
 40
0.6842105263157895
 40
0.6842105263157895
 10
51.17581947244474
 20
-28.45348170591512
 30
0.0
 10
51.00841947244474
 20
-28.68318170591513
 30
0.0
 10
50.86231947244475
 20
-28.89008170591513
 30
0.0
 10
50.67831947244473
 20
-29.11218170591513
 30
0.0
  0
SPLINE
  5
FD
330
1F
100
AcDbEntity
  8
0
  6
Continuous
 62
     7
370
    25
100
AcDbSpline
210
0.0
220
0.0
230
1.0
 70
     8
 71
     3
 72
     8
 73
     4
 74
     0
 42
0.000000001
 43
0.00000001
 40
0.7105263157894737
 40
0.7105263157894737
 40
0.7105263157894737
 40
0.7105263157894737
 40
0.7368421052631579
 40
0.7368421052631579
 40
0.7368421052631579
 40
0.7368421052631579
 10
49.03771947244477
 20
-31.00098170591514
 30
0.0
 10
48.26161947244479
 20
-31.79528170591515
 30
0.0
 10
47.40411947244478
 20
-32.54728170591516
 30
0.0
 10
46.57181947244478
 20
-33.21698170591517
 30
0.0
  0
SPLINE
  5
FE
330
1F
100
AcDbEntity
  8
0
  6
Continuous
 62
     7
370
    25
100
AcDbSpline
210
0.0
220
0.0
230
1.0
 70
     8
 71
     3
 72
     8
 73
     4
 74
     0
 42
0.000000001
 43
0.00000001
 40
0.7368421052631579
 40
0.7368421052631579
 40
0.7368421052631579
 40
0.7368421052631579
 40
0.7631578947368421
 40
0.7631578947368421
 40
0.7631578947368421
 40
0.7631578947368421
 10
46.57181947244478
 20
-33.21698170591517
 30
0.0
 10
45.74931947244482
 20
-33.87868170591518
 30
0.0
 10
42.98441947244481
 20
-35.65358170591521
 30
0.0
 10
42.13041947244482
 20
-35.80268170591522
 30
0.0
  0
SPLINE
  5
100
330
1F
100
AcDbEntity
  8
0
  6
Continuous
 62
     7
370
    25
100
AcDbSpline
210
0.0
220
0.0
230
1.0
 70
     8
 71
     3
 72
     8
 73
     4
 74
     0
 42
0.000000001
 43
0.00000001
 40
0.7894736842105263
 40
0.7894736842105263
 40
0.7894736842105263
 40
0.7894736842105263
 40
0.8157894736842105
 40
0.8157894736842105
 40
0.8157894736842105
 40
0.8157894736842105
 10
42.09581947244479
 20
-34.12658170591522
 30
0.0
 10
42.61971947244479
 20
-34.18188170591521
 30
0.0
 10
44.02821947244481
 20
-34.6639817059152
 30
0.0
 10
44.33491947244482
 20
-34.2531817059152
 30
0.0
  0
SPLINE
  5
101
330
1F
100
AcDbEntity
  8
0
  6
Continuous
 62
     7
370
    25
100
AcDbSpline
210
0.0
220
0.0
230
1.0
 70
     8
 71
     3
 72
     8
 73
     4
 74
     0
 42
0.000000001
 43
0.00000001
 40
0.8157894736842105
 40
0.8157894736842105
 40
0.8157894736842105
 40
0.8157894736842105
 40
0.8421052631578947
 40
0.8421052631578947
 40
0.8421052631578947
 40
0.8421052631578947
 10
44.33491947244482
 20
-34.2531817059152
 30
0.0
 10
44.46421947244482
 20
-34.07988170591519
 30
0.0
 10
46.4105194724447
 20
-23.86708170591517
 30
0.0
 10
46.52901947244469
 20
-23.28938170591517
 30
0.0
  0
SPLINE
  5
102
330
1F
100
AcDbEntity
  8
0
  6
Continuous
 62
     7
370
    25
100
AcDbSpline
210
0.0
220
0.0
230
1.0
 70
     8
 71
     3
 72
     8
 73
     4
 74
     0
 42
0.000000001
 43
0.00000001
 40
0.8421052631578947
 40
0.8421052631578947
 40
0.8421052631578947
 40
0.8421052631578947
 40
0.868421052631579
 40
0.868421052631579
 40
0.868421052631579
 40
0.868421052631579
 10
46.52901947244469
 20
-23.28938170591517
 30
0.0
 10
47.01771947244467
 20
-20.90608170591517
 30
0.0
 10
47.26291947244466
 20
-20.74648170591516
 30
0.0
 10
46.16101947244466
 20
-20.52498170591518
 30
0.0
  0
SPLINE
  5
103
330
1F
100
AcDbEntity
  8
0
  6
Continuous
 62
     7
370
    25
100
AcDbSpline
210
0.0
220
0.0
230
1.0
 70
     8
 71
     3
 72
     8
 73
     4
 74
     0
 42
0.000000001
 43
0.00000001
 40
0.868421052631579
 40
0.868421052631579
 40
0.868421052631579
 40
0.868421052631579
 40
0.8947368421052632
 40
0.8947368421052632
 40
0.8947368421052632
 40
0.8947368421052632
 10
46.16101947244466
 20
-20.52498170591518
 30
0.0
 10
45.78461947244465
 20
-20.44928170591518
 30
0.0
 10
45.39971947244466
 20
-20.36998170591518
 30
0.0
 10
45.03801947244465
 20
-20.30558170591519
 30
0.0
  0
SPLINE
  5
104
330
1F
100
AcDbEntity
  8
0
  6
Continuous
 62
     7
370
    25
100
AcDbSpline
210
0.0
220
0.0
230
1.0
 70
     8
 71
     3
 72
     8
 73
     4
 74
     0
 42
0.000000001
 43
0.00000001
 40
0.8947368421052632
 40
0.8947368421052632
 40
0.8947368421052632
 40
0.8947368421052632
 40
0.9210526315789473
 40
0.9210526315789473
 40
0.9210526315789473
 40
0.9210526315789473
 10
45.03801947244465
 20
-20.30558170591519
 30
0.0
 10
43.94411947244467
 20
-20.1110817059152
 30
0.0
 10
36.53951947244465
 20
-18.57328170591528
 30
0.0
 10
36.20741947244464
 20
-18.61278170591528
 30
0.0
  0
SPLINE
  5
105
330
1F
100
AcDbEntity
  8
0
  6
Continuous
 62
     7
370
    25
100
AcDbSpline
210
0.0
220
0.0
230
1.0
 70
     8
 71
     3
 72
     8
 73
     4
 74
     0
 42
0.000000001
 43
0.00000001
 40
0.8
 40
0.8
 40
0.8
 40
0.8
 40
1.0
 40
1.0
 40
1.0
 40
1.0
 10
40.76881947244436
 20
6.733318294084765
 30
0.0
 10
41.65661947244437
 20
7.728518294084774
 30
0.0
 10
41.02921947244435
 20
9.231318294084765
 30
0.0
 10
39.60451947244435
 20
9.107918294084756
 30
0.0
  0
SPLINE
  5
106
330
1F
100
AcDbEntity
  8
0
  6
Continuous
 62
     7
370
    25
100
AcDbSpline
210
0.0
220
0.0
230
1.0
 70
     8
 71
     3
 72
     8
 73
     4
 74
     0
 42
0.000000001
 43
0.00000001
 40
0.0
 40
0.0
 40
0.0
 40
0.0
 40
0.1
 40
0.1
 40
0.1
 40
0.1
 10
39.60451947244435
 20
9.107918294084756
 30
0.0
 10
39.01571947244435
 20
9.056818294084744
 30
0.0
 10
38.60621947244436
 20
8.54511829408474
 30
0.0
 10
38.27291947244435
 20
8.265618294084751
 30
0.0
  0
SPLINE
  5
107
330
1F
100
AcDbEntity
  8
0
  6
Continuous
 62
     7
370
    25
100
AcDbSpline
210
0.0
220
0.0
230
1.0
 70
     8
 71
     3
 72
     8
 73
     4
 74
     0
 42
0.000000001
 43
0.00000001
 40
0.1
 40
0.1
 40
0.1
 40
0.1
 40
0.2
 40
0.2
 40
0.2
 40
0.2
 10
38.27291947244435
 20
8.265618294084751
 30
0.0
 10
36.77171947244435
 20
7.00681829408472
 30
0.0
 10
34.95791947244437
 20
7.075418294084708
 30
0.0
 10
33.39981947244436
 20
8.048518294084692
 30
0.0
  0
SPLINE
  5
108
330
1F
100
AcDbEntity
  8
0
  6
Continuous
 62
     7
370
    25
100
AcDbSpline
210
0.0
220
0.0
230
1.0
 70
     8
 71
     3
 72
     8
 73
     4
 74
     0
 42
0.000000001
 43
0.00000001
 40
0.2
 40
0.2
 40
0.2
 40
0.2
 40
0.3
 40
0.3
 40
0.3
 40
0.3
 10
33.39981947244436
 20
8.048518294084692
 30
0.0
 10
32.95091947244435
 20
8.328818294084682
 30
0.0
 10
32.39191947244435
 20
8.864518294084682
 30
0.0
 10
32.15341947244436
 20
8.989718294084682
 30
0.0
  0
SPLINE
  5
109
330
1F
100
AcDbEntity
  8
0
  6
Continuous
 62
     7
370
    25
100
AcDbSpline
210
0.0
220
0.0
230
1.0
 70
     8
 71
     3
 72
     8
 73
     4
 74
     0
 42
0.000000001
 43
0.00000001
 40
0.5
 40
0.5
 40
0.5
 40
0.5
 40
0.6
 40
0.6
 40
0.6
 40
0.6
 10
31.43491947244438
 20
6.015218294084676
 30
0.0
 10
33.46731947244439
 20
4.621318294084693
 30
0.0
 10
35.7552194724444
 20
4.038618294084715
 30
0.0
 10
38.15861947244439
 20
4.967818294084742
 30
0.0
  0
SPLINE
  5
10A
330
1F
100
AcDbEntity
  8
0
  6
Continuous
 62
     7
370
    25
100
AcDbSpline
210
0.0
220
0.0
230
1.0
 70
     8
 71
     3
 72
     8
 73
     4
 74
     0
 42
0.000000001
 43
0.00000001
 40
0.6
 40
0.6
 40
0.6
 40
0.6
 40
0.7
 40
0.7
 40
0.7
 40
0.7
 10
38.15861947244439
 20
4.967818294084742
 30
0.0
 10
38.6965194724444
 20
5.175818294084748
 30
0.0
 10
39.16641947244438
 20
5.459418294084751
 30
0.0
 10
39.57001947244437
 20
5.747218294084755
 30
0.0
  0
SPLINE
  5
10B
330
1F
100
AcDbEntity
  8
0
  6
Continuous
 62
     7
370
    25
100
AcDbSpline
210
0.0
220
0.0
230
1.0
 70
     8
 71
     3
 72
     8
 73
     4
 74
     0
 42
0.000000001
 43
0.00000001
 40
0.7
 40
0.7
 40
0.7
 40
0.7
 40
0.8
 40
0.8
 40
0.8
 40
0.8
 10
39.57001947244437
 20
5.747218294084755
 30
0.0
 10
40.01021947244438
 20
6.061118294084761
 30
0.0
 10
40.42111947244438
 20
6.343418294084767
 30
0.0
 10
40.76881947244436
 20
6.733318294084765
 30
0.0
  0
SPLINE
  5
10C
330
1F
100
AcDbEntity
  8
0
  6
Continuous
 62
     7
370
    25
100
AcDbSpline
210
0.0
220
0.0
230
1.0
 70
     8
 71
     3
 72
     8
 73
     4
 74
     0
 42
0.000000001
 43
0.00000001
 40
0.8
 40
0.8
 40
0.8
 40
0.8
 40
1.0
 40
1.0
 40
1.0
 40
1.0
 10
43.34131947244443
 20
1.272018294084798
 30
0.0
 10
44.34231947244442
 20
2.210318294084808
 30
0.0
 10
43.4544194724444
 20
4.155618294084798
 30
0.0
 10
41.9797194724444
 20
3.63641829408478
 30
0.0
  0
SPLINE
  5
10D
330
1F
100
AcDbEntity
  8
0
  6
Continuous
 62
     7
370
    25
100
AcDbSpline
210
0.0
220
0.0
230
1.0
 70
     8
 71
     3
 72
     8
 73
     4
 74
     0
 42
0.000000001
 43
0.00000001
 40
0.0
 40
0.0
 40
0.0
 40
0.0
 40
0.1
 40
0.1
 40
0.1
 40
0.1
 10
41.9797194724444
 20
3.63641829408478
 30
0.0
 10
41.4617194724444
 20
3.453918294084778
 30
0.0
 10
40.8142194724444
 20
2.759918294084764
 30
0.0
 10
40.24201947244442
 20
2.317618294084771
 30
0.0
  0
SPLINE
  5
10E
330
1F
100
AcDbEntity
  8
0
  6
Continuous
 62
     7
370
    25
100
AcDbSpline
210
0.0
220
0.0
230
1.0
 70
     8
 71
     3
 72
     8
 73
     4
 74
     0
 42
0.000000001
 43
0.00000001
 40
0.1
 40
0.1
 40
0.1
 40
0.1
 40
0.2
 40
0.2
 40
0.2
 40
0.2
 10
40.24201947244442
 20
2.317618294084771
 30
0.0
 10
38.20881947244444
 20
0.7455182940847502
 30
0.0
 10
35.41881947244443
 20
0.4691182940847125
 30
0.0
 10
33.04151947244443
 20
1.408418294084689
 30
0.0
  0
SPLINE
  5
10F
330
1F
100
AcDbEntity
  8
0
  6
Continuous
 62
     7
370
    25
100
AcDbSpline
210
0.0
220
0.0
230
1.0
 70
     8
 71
     3
 72
     8
 73
     4
 74
     0
 42
0.000000001
 43
0.00000001
 40
0.2
 40
0.2
 40
0.2
 40
0.2
 40
0.3
 40
0.3
 40
0.3
 40
0.3
 10
33.04151947244443
 20
1.408418294084689
 30
0.0
 10
30.68811947244443
 20
2.338418294084661
 30
0.0
 10
29.9252194724444
 20
3.563718294084653
 30
0.0
 10
29.1401194724444
 20
3.693118294084648
 30
0.0
  0
SPLINE
  5
110
330
1F
100
AcDbEntity
  8
0
  6
Continuous
 62
     7
370
    25
100
AcDbSpline
210
0.0
220
0.0
230
1.0
 70
     8
 71
     3
 72
     8
 73
     4
 74
     0
 42
0.000000001
 43
0.00000001
 40
0.3
 40
0.3
 40
0.3
 40
0.3
 40
0.4
 40
0.4
 40
0.4
 40
0.4
 10
29.1401194724444
 20
3.693118294084648
 30
0.0
 10
28.1886194724444
 20
3.850118294084631
 30
0.0
 10
27.47481947244442
 20
3.103218294084637
 30
0.0
 10
27.53931947244442
 20
2.190218294084632
 30
0.0
  0
SPLINE
  5
111
330
1F
100
AcDbEntity
  8
0
  6
Continuous
 62
     7
370
    25
100
AcDbSpline
210
0.0
220
0.0
230
1.0
 70
     8
 71
     3
 72
     8
 73
     4
 74
     0
 42
0.000000001
 43
0.00000001
 40
0.4
 40
0.4
 40
0.4
 40
0.4
 40
0.5
 40
0.5
 40
0.5
 40
0.5
 10
27.53931947244442
 20
2.190218294084632
 30
0.0
 10
27.59371947244443
 20
1.421018294084635
 30
0.0
 10
28.37461947244443
 20
0.9253182940846469
 30
0.0
 10
28.92841947244443
 20
0.4925182940846429
 30
0.0
  0
SPLINE
  5
112
330
1F
100
AcDbEntity
  8
0
  6
Continuous
 62
     7
370
    25
100
AcDbSpline
210
0.0
220
0.0
230
1.0
 70
     8
 71
     3
 72
     8
 73
     4
 74
     0
 42
0.000000001
 43
0.00000001
 40
0.5
 40
0.5
 40
0.5
 40
0.5
 40
0.6
 40
0.6
 40
0.6
 40
0.6
 10
28.92841947244443
 20
0.4925182940846429
 30
0.0
 10
29.90611947244444
 20
-0.2716817059153498
 30
0.0
 10
31.57191947244445
 20
-1.121881705915324
 30
0.0
 10
33.06281947244447
 20
-1.538781705915312
 30
0.0
  0
SPLINE
  5
113
330
1F
100
AcDbEntity
  8
0
  6
Continuous
 62
     7
370
    25
100
AcDbSpline
210
0.0
220
0.0
230
1.0
 70
     8
 71
     3
 72
     8
 73
     4
 74
     0
 42
0.000000001
 43
0.00000001
 40
0.6
 40
0.6
 40
0.6
 40
0.6
 40
0.7
 40
0.7
 40
0.7
 40
0.7
 10
33.06281947244447
 20
-1.538781705915312
 30
0.0
 10
36.33341947244446
 20
-2.45318170591528
 30
0.0
 10
38.97301947244447
 20
-1.837081705915251
 30
0.0
 10
41.63051947244445
 20
-0.1031817059152229
 30
0.0
  0
SPLINE
  5
115
330
1F
100
AcDbEntity
  8
0
  6
Continuous
 62
     7
370
    25
100
AcDbSpline
210
0.0
220
0.0
230
1.0
 70
     8
 71
     3
 72
     8
 73
     4
 74
     0
 42
0.000000001
 43
0.00000001
 40
0.8333333333333334
 40
0.8333333333333334
 40
0.8333333333333334
 40
0.8333333333333334
 40
1.0
 40
1.0
 40
1.0
 40
1.0
 10
49.44441947244453
 20
-9.48708170591514
 30
0.0
 10
49.16811947244452
 20
-8.862681705915147
 30
0.0
 10
48.43811947244454
 20
-8.55248170591515
 30
0.0
 10
47.82141947244453
 20
-8.713081705915156
 30
0.0
  0
SPLINE
  5
116
330
1F
100
AcDbEntity
  8
0
  6
Continuous
 62
     7
370
    25
100
AcDbSpline
210
0.0
220
0.0
230
1.0
 70
     8
 71
     3
 72
     8
 73
     4
 74
     0
 42
0.000000001
 43
0.00000001
 40
0.0
 40
0.0
 40
0.0
 40
0.0
 40
0.0833333333333333
 40
0.0833333333333333
 40
0.0833333333333333
 40
0.0833333333333333
 10
47.82141947244453
 20
-8.713081705915156
 30
0.0
 10
47.50961947244455
 20
-8.794181705915161
 30
0.0
 10
46.61731947244454
 20
-9.404481705915172
 30
0.0
 10
46.32131947244453
 20
-9.597281705915172
 30
0.0
  0
SPLINE
  5
117
330
1F
100
AcDbEntity
  8
0
  6
Continuous
 62
     7
370
    25
100
AcDbSpline
210
0.0
220
0.0
230
1.0
 70
     8
 71
     3
 72
     8
 73
     4
 74
     0
 42
0.000000001
 43
0.00000001
 40
0.1666666666666667
 40
0.1666666666666667
 40
0.1666666666666667
 40
0.1666666666666667
 40
0.25
 40
0.25
 40
0.25
 40
0.25
 10
44.78201947244456
 20
-10.43238170591519
 30
0.0
 10
38.85921947244459
 20
-13.43678170591526
 30
0.0
 10
31.33851947244456
 20
-12.82428170591533
 30
0.0
 10
25.52271947244454
 20
-9.83698170591539
 30
0.0
  0
SPLINE
  5
118
330
1F
100
AcDbEntity
  8
0
  6
Continuous
 62
     7
370
    25
100
AcDbSpline
210
0.0
220
0.0
230
1.0
 70
     8
 71
     3
 72
     8
 73
     4
 74
     0
 42
0.000000001
 43
0.00000001
 40
0.25
 40
0.25
 40
0.25
 40
0.25
 40
0.3333333333333333
 40
0.3333333333333333
 40
0.3333333333333333
 40
0.3333333333333333
 10
25.52271947244454
 20
-9.83698170591539
 30
0.0
 10
24.12871947244454
 20
-9.120981705915407
 30
0.0
 10
23.24401947244453
 20
-8.19848170591542
 30
0.0
 10
22.26061947244453
 20
-8.97168170591543
 30
0.0
  0
SPLINE
  5
119
330
1F
100
AcDbEntity
  8
0
  6
Continuous
 62
     7
370
    25
100
AcDbSpline
210
0.0
220
0.0
230
1.0
 70
     8
 71
     3
 72
     8
 73
     4
 74
     0
 42
0.000000001
 43
0.00000001
 40
0.3333333333333333
 40
0.3333333333333333
 40
0.3333333333333333
 40
0.3333333333333333
 40
0.4166666666666667
 40
0.4166666666666667
 40
0.4166666666666667
 40
0.4166666666666667
 10
22.26061947244453
 20
-8.97168170591543
 30
0.0
 10
21.84971947244454
 20
-9.294681705915433
 30
0.0
 10
21.50881947244454
 20
-9.999481705915434
 30
0.0
 10
21.88471947244455
 20
-10.71758170591543
 30
0.0
  0
SPLINE
  5
11A
330
1F
100
AcDbEntity
  8
0
  6
Continuous
 62
     7
370
    25
100
AcDbSpline
210
0.0
220
0.0
230
1.0
 70
     8
 71
     3
 72
     8
 73
     4
 74
     0
 42
0.000000001
 43
0.00000001
 40
0.4166666666666667
 40
0.4166666666666667
 40
0.4166666666666667
 40
0.4166666666666667
 40
0.5
 40
0.5
 40
0.5
 40
0.5
 10
21.88471947244455
 20
-10.71758170591543
 30
0.0
 10
22.33681947244457
 20
-11.58098170591542
 30
0.0
 10
25.50001947244457
 20
-12.93938170591539
 30
0.0
 10
26.44051947244459
 20
-13.29538170591538
 30
0.0
  0
SPLINE
  5
11B
330
1F
100
AcDbEntity
  8
0
  6
Continuous
 62
     7
370
    25
100
AcDbSpline
210
0.0
220
0.0
230
1.0
 70
     8
 71
     3
 72
     8
 73
     4
 74
     0
 42
0.000000001
 43
0.00000001
 40
0.5
 40
0.5
 40
0.5
 40
0.5
 40
0.5833333333333334
 40
0.5833333333333334
 40
0.5833333333333334
 40
0.5833333333333334
 10
26.44051947244459
 20
-13.29538170591538
 30
0.0
 10
30.0641194724446
 20
-14.66718170591535
 30
0.0
 10
34.6819194724446
 20
-15.67058170591529
 30
0.0
 10
38.63081947244459
 20
-15.08108170591525
 30
0.0
  0
SPLINE
  5
11C
330
1F
100
AcDbEntity
  8
0
  6
Continuous
 62
     7
370
    25
100
AcDbSpline
210
0.0
220
0.0
230
1.0
 70
     8
 71
     3
 72
     8
 73
     4
 74
     0
 42
0.000000001
 43
0.00000001
 40
0.5833333333333334
 40
0.5833333333333334
 40
0.5833333333333334
 40
0.5833333333333334
 40
0.6666666666666666
 40
0.6666666666666666
 40
0.6666666666666666
 40
0.6666666666666666
 10
38.63081947244459
 20
-15.08108170591525
 30
0.0
 10
41.4523194724446
 20
-14.65998170591523
 30
0.0
 10
43.70141947244459
 20
-14.1126817059152
 30
0.0
 10
45.99701947244457
 20
-12.94558170591517
 30
0.0
  0
SPLINE
  5
11D
330
1F
100
AcDbEntity
  8
0
  6
Continuous
 62
     7
370
    25
100
AcDbSpline
210
0.0
220
0.0
230
1.0
 70
     8
 71
     3
 72
     8
 73
     4
 74
     0
 42
0.000000001
 43
0.00000001
 40
0.6666666666666666
 40
0.6666666666666666
 40
0.6666666666666666
 40
0.6666666666666666
 40
0.75
 40
0.75
 40
0.75
 40
0.75
 10
45.99701947244457
 20
-12.94558170591517
 30
0.0
 10
46.88561947244457
 20
-12.49378170591517
 30
0.0
 10
48.23681947244459
 20
-11.76538170591515
 30
0.0
 10
49.00971947244457
 20
-11.20358170591515
 30
0.0
  0
SPLINE
  5
11E
330
1F
100
AcDbEntity
  8
0
  6
Continuous
 62
     7
370
    25
100
AcDbSpline
210
0.0
220
0.0
230
1.0
 70
     8
 71
     3
 72
     8
 73
     4
 74
     0
 42
0.000000001
 43
0.00000001
 40
0.75
 40
0.75
 40
0.75
 40
0.75
 40
0.8333333333333334
 40
0.8333333333333334
 40
0.8333333333333334
 40
0.8333333333333334
 10
49.00971947244457
 20
-11.20358170591515
 30
0.0
 10
49.45281947244457
 20
-10.88158170591514
 30
0.0
 10
49.73681947244456
 20
-10.14738170591514
 30
0.0
 10
49.44441947244453
 20
-9.48708170591514
 30
0.0
  0
SPLINE
  5
11F
330
1F
100
AcDbEntity
  8
0
  6
Continuous
 62
     7
370
    25
100
AcDbSpline
210
0.0
220
0.0
230
1.0
 70
     8
 71
     3
 72
     8
 73
     4
 74
     0
 42
0.000000001
 43
0.00000001
 40
0.8571428571428571
 40
0.8571428571428571
 40
0.8571428571428571
 40
0.8571428571428571
 40
1.0
 40
1.0
 40
1.0
 40
1.0
 10
46.25621947244449
 20
-5.238681705915176
 30
0.0
 10
46.6076194724445
 20
-4.937081705915169
 30
0.0
 10
46.86411947244448
 20
-4.445981705915168
 30
0.0
 10
46.71951947244449
 20
-3.886881705915168
 30
0.0
  0
SPLINE
  5
120
330
1F
100
AcDbEntity
  8
0
  6
Continuous
 62
     7
370
    25
100
AcDbSpline
210
0.0
220
0.0
230
1.0
 70
     8
 71
     3
 72
     8
 73
     4
 74
     0
 42
0.000000001
 43
0.00000001
 40
0.0
 40
0.0
 40
0.0
 40
0.0
 40
0.0714285714285714
 40
0.0714285714285714
 40
0.0714285714285714
 40
0.0714285714285714
 10
46.71951947244449
 20
-3.886881705915168
 30
0.0
 10
46.58881947244449
 20
-3.382081705915172
 30
0.0
 10
46.51021947244448
 20
-3.028281705915171
 30
0.0
 10
45.82581947244448
 20
-2.827881705915182
 30
0.0
  0
SPLINE
  5
121
330
1F
100
AcDbEntity
  8
0
  6
Continuous
 62
     7
370
    25
100
AcDbSpline
210
0.0
220
0.0
230
1.0
 70
     8
 71
     3
 72
     8
 73
     4
 74
     0
 42
0.000000001
 43
0.00000001
 40
0.0714285714285714
 40
0.0714285714285714
 40
0.0714285714285714
 40
0.0714285714285714
 40
0.1428571428571428
 40
0.1428571428571428
 40
0.1428571428571428
 40
0.1428571428571428
 10
45.82581947244448
 20
-2.827881705915182
 30
0.0
 10
45.13821947244448
 20
-2.626581705915183
 30
0.0
 10
44.75951947244448
 20
-2.875281705915195
 30
0.0
 10
44.33601947244448
 20
-3.190281705915194
 30
0.0
  0
SPLINE
  5
123
330
1F
100
AcDbEntity
  8
0
  6
Continuous
 62
     7
370
    25
100
AcDbSpline
210
0.0
220
0.0
230
1.0
 70
     8
 71
     3
 72
     8
 73
     4
 74
     0
 42
0.000000001
 43
0.00000001
 40
0.2142857142857143
 40
0.2142857142857143
 40
0.2142857142857143
 40
0.2142857142857143
 40
0.2857142857142857
 40
0.2857142857142857
 40
0.2857142857142857
 40
0.2857142857142857
 10
43.74091947244447
 20
-3.5573817059152
 30
0.0
 10
43.0838194724445
 20
-3.930281705915205
 30
0.0
 10
42.72851947244449
 20
-4.226781705915211
 30
0.0
 10
41.84821947244449
 20
-4.609781705915222
 30
0.0
  0
SPLINE
  5
124
330
1F
100
AcDbEntity
  8
0
  6
Continuous
 62
     7
370
    25
100
AcDbSpline
210
0.0
220
0.0
230
1.0
 70
     8
 71
     3
 72
     8
 73
     4
 74
     0
 42
0.000000001
 43
0.00000001
 40
0.2857142857142857
 40
0.2857142857142857
 40
0.2857142857142857
 40
0.2857142857142857
 40
0.3571428571428572
 40
0.3571428571428572
 40
0.3571428571428572
 40
0.3571428571428572
 10
41.84821947244449
 20
-4.609781705915222
 30
0.0
 10
39.8128194724445
 20
-5.495081705915242
 30
0.0
 10
37.85421947244451
 20
-5.99688170591526
 30
0.0
 10
35.3011194724445
 20
-5.874781705915287
 30
0.0
  0
SPLINE
  5
125
330
1F
100
AcDbEntity
  8
0
  6
Continuous
 62
     7
370
    25
100
AcDbSpline
210
0.0
220
0.0
230
1.0
 70
     8
 71
     3
 72
     8
 73
     4
 74
     0
 42
0.000000001
 43
0.00000001
 40
0.3571428571428572
 40
0.3571428571428572
 40
0.3571428571428572
 40
0.3571428571428572
 40
0.4285714285714285
 40
0.4285714285714285
 40
0.4285714285714285
 40
0.4285714285714285
 10
35.3011194724445
 20
-5.874781705915287
 30
0.0
 10
32.8209194724445
 20
-5.756081705915316
 30
0.0
 10
29.77001947244448
 20
-4.843881705915348
 30
0.0
 10
27.79841947244448
 20
-3.647781705915367
 30
0.0
  0
SPLINE
  5
127
330
1F
100
AcDbEntity
  8
0
  6
Continuous
 62
     7
370
    25
100
AcDbSpline
210
0.0
220
0.0
230
1.0
 70
     8
 71
     3
 72
     8
 73
     4
 74
     0
 42
0.000000001
 43
0.00000001
 40
0.5
 40
0.5
 40
0.5
 40
0.5
 40
0.5714285714285714
 40
0.5714285714285714
 40
0.5714285714285714
 40
0.5714285714285714
 10
26.54841947244447
 20
-2.904481705915379
 30
0.0
 10
24.95381947244447
 20
-2.1607817059154
 30
0.0
 10
23.49471947244448
 20
-4.302281705915415
 30
0.0
 10
25.4311194724445
 20
-5.505981705915392
 30
0.0
  0
SPLINE
  5
128
330
1F
100
AcDbEntity
  8
0
  6
Continuous
 62
     7
370
    25
100
AcDbSpline
210
0.0
220
0.0
230
1.0
 70
     8
 71
     3
 72
     8
 73
     4
 74
     0
 42
0.000000001
 43
0.00000001
 40
0.5714285714285714
 40
0.5714285714285714
 40
0.5714285714285714
 40
0.5714285714285714
 40
0.6428571428571429
 40
0.6428571428571429
 40
0.6428571428571429
 40
0.6428571428571429
 10
25.4311194724445
 20
-5.505981705915392
 30
0.0
 10
25.83911947244451
 20
-5.759581705915392
 30
0.0
 10
26.2485194724445
 20
-6.022881705915386
 30
0.0
 10
26.69221947244451
 20
-6.239181705915378
 30
0.0
  0
SPLINE
  5
129
330
1F
100
AcDbEntity
  8
0
  6
Continuous
 62
     7
370
    25
100
AcDbSpline
210
0.0
220
0.0
230
1.0
 70
     8
 71
     3
 72
     8
 73
     4
 74
     0
 42
0.000000001
 43
0.00000001
 40
0.6428571428571429
 40
0.6428571428571429
 40
0.6428571428571429
 40
0.6428571428571429
 40
0.7142857142857143
 40
0.7142857142857143
 40
0.7142857142857143
 40
0.7142857142857143
 10
26.69221947244451
 20
-6.239181705915378
 30
0.0
 10
29.71541947244453
 20
-7.712181705915349
 30
0.0
 10
32.36831947244453
 20
-8.69138170591532
 30
0.0
 10
36.00961947244453
 20
-8.683881705915278
 30
0.0
  0
SPLINE
  5
12A
330
1F
100
AcDbEntity
  8
0
  6
Continuous
 62
     7
370
    25
100
AcDbSpline
210
0.0
220
0.0
230
1.0
 70
     8
 71
     3
 72
     8
 73
     4
 74
     0
 42
0.000000001
 43
0.00000001
 40
0.7142857142857143
 40
0.7142857142857143
 40
0.7142857142857143
 40
0.7142857142857143
 40
0.7857142857142857
 40
0.7857142857142857
 40
0.7857142857142857
 40
0.7857142857142857
 10
36.00961947244453
 20
-8.683881705915278
 30
0.0
 10
38.45851947244454
 20
-8.678781705915258
 30
0.0
 10
40.56511947244454
 20
-8.172581705915235
 30
0.0
 10
42.53651947244452
 20
-7.367181705915212
 30
0.0
  0
SPLINE
  5
12B
330
1F
100
AcDbEntity
  8
0
  6
Continuous
 62
     7
370
    25
100
AcDbSpline
210
0.0
220
0.0
230
1.0
 70
     8
 71
     3
 72
     8
 73
     4
 74
     0
 42
0.000000001
 43
0.00000001
 40
0.7857142857142857
 40
0.7857142857142857
 40
0.7857142857142857
 40
0.7857142857142857
 40
0.8571428571428571
 40
0.8571428571428571
 40
0.8571428571428571
 40
0.8571428571428571
 10
42.53651947244452
 20
-7.367181705915212
 30
0.0
 10
43.49601947244451
 20
-6.975181705915202
 30
0.0
 10
45.48611947244451
 20
-5.899381705915179
 30
0.0
 10
46.25621947244449
 20
-5.238681705915176
 30
0.0
  0
SPLINE
  5
12C
330
1F
100
AcDbEntity
  8
0
  6
Continuous
 62
     7
370
    25
100
AcDbSpline
210
0.0
220
0.0
230
1.0
 70
     8
 71
     3
 72
     8
 73
     4
 74
     0
 42
0.000000001
 43
0.00000001
 40
0.0833333333333333
 40
0.0833333333333333
 40
0.0833333333333333
 40
0.0833333333333333
 40
0.1666666666666667
 40
0.1666666666666667
 40
0.1666666666666667
 40
0.1666666666666667
 10
46.32131947244453
 20
-9.597281705915172
 30
0.0
 10
45.86341947244455
 20
-9.89558170591518
 30
0.0
 10
45.30811947244457
 20
-10.16558170591518
 30
0.0
 10
44.78201947244456
 20
-10.43238170591519
 30
0.0
  0
SPLINE
  5
12D
330
1F
100
AcDbEntity
  8
0
  6
Continuous
 62
     7
370
    25
100
AcDbSpline
210
0.0
220
0.0
230
1.0
 70
     8
 71
     3
 72
     8
 73
     4
 74
     0
 42
0.000000001
 43
0.00000001
 40
0.131578947368421
 40
0.131578947368421
 40
0.131578947368421
 40
0.131578947368421
 40
0.1578947368421053
 40
0.1578947368421053
 40
0.1578947368421053
 40
0.1578947368421053
 10
26.90891947244474
 20
-27.87038170591538
 30
0.0
 10
26.19641947244473
 20
-28.35868170591538
 30
0.0
 10
25.54261947244476
 20
-29.81888170591539
 30
0.0
 10
25.04511947244476
 20
-30.5655817059154
 30
0.0
  0
SPLINE
  5
12E
330
1F
100
AcDbEntity
  8
0
  6
Continuous
 62
     7
370
    25
100
AcDbSpline
210
0.0
220
0.0
230
1.0
 70
     8
 71
     3
 72
     8
 73
     4
 74
     0
 42
0.000000001
 43
0.00000001
 40
0.3
 40
0.3
 40
0.3
 40
0.3
 40
0.4
 40
0.4
 40
0.4
 40
0.4
 10
32.15341947244436
 20
8.989718294084682
 30
0.0
 10
31.01341947244435
 20
9.588218294084662
 30
0.0
 10
29.58371947244435
 20
8.341518294084652
 30
0.0
 10
30.31911947244437
 20
7.027018294084662
 30
0.0
  0
SPLINE
  5
12F
330
1F
100
AcDbEntity
  8
0
  6
Continuous
 62
     7
370
    25
100
AcDbSpline
210
0.0
220
0.0
230
1.0
 70
     8
 71
     3
 72
     8
 73
     4
 74
     0
 42
0.000000001
 43
0.00000001
 40
0.4
 40
0.4
 40
0.4
 40
0.4
 40
0.5
 40
0.5
 40
0.5
 40
0.5
 10
30.31911947244437
 20
7.027018294084662
 30
0.0
 10
30.54681947244438
 20
6.619918294084669
 30
0.0
 10
31.05061947244437
 20
6.278818294084658
 30
0.0
 10
31.43491947244438
 20
6.015218294084676
 30
0.0
  0
SPLINE
  5
130
330
1F
100
AcDbEntity
  8
0
  6
Continuous
 62
     7
370
    25
100
AcDbSpline
210
0.0
220
0.0
230
1.0
 70
     8
 71
     3
 72
     8
 73
     4
 74
     0
 42
0.000000001
 43
0.00000001
 40
0.0263157894736842
 40
0.0263157894736842
 40
0.0263157894736842
 40
0.0263157894736842
 40
0.0526315789473684
 40
0.0526315789473684
 40
0.0526315789473684
 40
0.0526315789473684
 10
32.98881947244472
 20
-26.58168170591532
 30
0.0
 10
32.07251947244473
 20
-26.52468170591532
 30
0.0
 10
31.30631947244472
 20
-27.05358170591533
 30
0.0
 10
30.70031947244473
 20
-27.61798170591534
 30
0.0
  0
SPLINE
  5
131
330
1F
100
AcDbEntity
  8
0
  6
Continuous
 62
     7
370
    25
100
AcDbSpline
210
0.0
220
0.0
230
1.0
 70
     8
 71
     3
 72
     8
 73
     4
 74
     0
 42
0.000000001
 43
0.00000001
 40
0.8181818181818182
 40
0.8181818181818182
 40
0.8181818181818182
 40
0.8181818181818182
 40
1.0
 40
1.0
 40
1.0
 40
1.0
 10
27.14481947244481
 20
-34.53288170591537
 30
0.0
 10
27.25171947244481
 20
-35.01588170591538
 30
0.0
 10
27.44231947244482
 20
-35.11418170591538
 30
0.0
 10
27.68151947244482
 20
-35.42438170591537
 30
0.0
  0
SPLINE
  5
133
330
1F
100
AcDbEntity
  8
0
  6
Continuous
 62
     7
370
    25
100
AcDbSpline
210
0.0
220
0.0
230
1.0
 70
     8
 71
     3
 72
     8
 73
     4
 74
     0
 42
0.000000001
 43
0.00000001
 40
0.2727272727272727
 40
0.2727272727272727
 40
0.2727272727272727
 40
0.2727272727272727
 40
0.3636363636363636
 40
0.3636363636363636
 40
0.3636363636363636
 40
0.3636363636363636
 10
27.11341947244475
 20
-29.42068170591537
 30
0.0
 10
27.30121947244475
 20
-29.11988170591538
 30
0.0
 10
27.44941947244475
 20
-28.85888170591537
 30
0.0
 10
27.78151947244475
 20
-28.68628170591537
 30
0.0
  0
SPLINE
  5
134
330
1F
100
AcDbEntity
  8
0
  6
Continuous
 62
     7
370
    25
100
AcDbSpline
210
0.0
220
0.0
230
1.0
 70
     8
 71
     3
 72
     8
 73
     4
 74
     0
 42
0.000000001
 43
0.00000001
 40
0.3636363636363636
 40
0.3636363636363636
 40
0.3636363636363636
 40
0.3636363636363636
 40
0.4545454545454545
 40
0.4545454545454545
 40
0.4545454545454545
 40
0.4545454545454545
 10
27.78151947244475
 20
-28.68628170591537
 30
0.0
 10
28.13471947244474
 20
-28.50288170591536
 30
0.0
 10
28.44421947244475
 20
-28.47458170591536
 30
0.0
 10
28.68861947244474
 20
-28.75688170591536
 30
0.0
  0
SPLINE
  5
135
330
1F
100
AcDbEntity
  8
0
  6
Continuous
 62
     7
370
    25
100
AcDbSpline
210
0.0
220
0.0
230
1.0
 70
     8
 71
     3
 72
     8
 73
     4
 74
     0
 42
0.000000001
 43
0.00000001
 40
0.4545454545454545
 40
0.4545454545454545
 40
0.4545454545454545
 40
0.4545454545454545
 40
0.5454545454545454
 40
0.5454545454545454
 40
0.5454545454545454
 40
0.5454545454545454
 10
28.68861947244474
 20
-28.75688170591536
 30
0.0
 10
28.82171947244474
 20
-28.91068170591535
 30
0.0
 10
29.05001947244475
 20
-29.45258170591536
 30
0.0
 10
28.95671947244476
 20
-29.73268170591536
 30
0.0
  0
SPLINE
  5
136
330
1F
100
AcDbEntity
  8
0
  6
Continuous
 62
     7
370
    25
100
AcDbSpline
210
0.0
220
0.0
230
1.0
 70
     8
 71
     3
 72
     8
 73
     4
 74
     0
 42
0.000000001
 43
0.00000001
 40
0.5454545454545454
 40
0.5454545454545454
 40
0.5454545454545454
 40
0.5454545454545454
 40
0.6363636363636364
 40
0.6363636363636364
 40
0.6363636363636364
 40
0.6363636363636364
 10
28.95671947244476
 20
-29.73268170591536
 30
0.0
 10
28.90241947244477
 20
-29.89598170591536
 30
0.0
 10
28.57751947244477
 20
-30.35858170591536
 30
0.0
 10
28.46101947244476
 20
-30.58388170591536
 30
0.0
  0
SPLINE
  5
137
330
1F
100
AcDbEntity
  8
0
  6
Continuous
 62
     7
370
    25
100
AcDbSpline
210
0.0
220
0.0
230
1.0
 70
     8
 71
     3
 72
     8
 73
     4
 74
     0
 42
0.000000001
 43
0.00000001
 40
0.6363636363636364
 40
0.6363636363636364
 40
0.6363636363636364
 40
0.6363636363636364
 40
0.7272727272727273
 40
0.7272727272727273
 40
0.7272727272727273
 40
0.7272727272727273
 10
28.46101947244476
 20
-30.58388170591536
 30
0.0
 10
28.30971947244476
 20
-30.87668170591536
 30
0.0
 10
28.13571947244477
 20
-31.15278170591537
 30
0.0
 10
27.97101947244478
 20
-31.44448170591536
 30
0.0
  0
SPLINE
  5
138
330
1F
100
AcDbEntity
  8
0
  6
Continuous
 62
     7
370
    25
100
AcDbSpline
210
0.0
220
0.0
230
1.0
 70
     8
 71
     3
 72
     8
 73
     4
 74
     0
 42
0.000000001
 43
0.00000001
 40
0.7272727272727273
 40
0.7272727272727273
 40
0.7272727272727273
 40
0.7272727272727273
 40
0.8181818181818182
 40
0.8181818181818182
 40
0.8181818181818182
 40
0.8181818181818182
 10
27.97101947244478
 20
-31.44448170591536
 30
0.0
 10
27.49151947244478
 20
-32.29418170591537
 30
0.0
 10
26.91211947244479
 20
-33.48108170591538
 30
0.0
 10
27.14481947244481
 20
-34.53288170591537
 30
0.0
  0
SPLINE
  5
139
330
1F
100
AcDbEntity
  8
0
  6
Continuous
 62
     7
370
    25
100
AcDbSpline
210
0.0
220
0.0
230
1.0
 70
     8
 71
     3
 72
     8
 73
     4
 74
     0
 42
0.000000001
 43
0.00000001
 40
0.1818181818181818
 40
0.1818181818181818
 40
0.1818181818181818
 40
0.1818181818181818
 40
0.2727272727272727
 40
0.2727272727272727
 40
0.2727272727272727
 40
0.2727272727272727
 10
25.0220194724448
 20
-34.0880817059154
 30
0.0
 10
24.86311947244478
 20
-32.5817817059154
 30
0.0
 10
26.31911947244478
 20
-30.69288170591538
 30
0.0
 10
27.11341947244475
 20
-29.42068170591537
 30
0.0
  0
SPLINE
  5
13A
330
1F
100
AcDbEntity
  8
0
  6
Continuous
 62
     7
370
    25
100
AcDbSpline
210
0.0
220
0.0
230
1.0
 70
     8
 71
     3
 72
     8
 73
     4
 74
     0
 42
0.000000001
 43
0.00000001
 40
0.0909090909090909
 40
0.0909090909090909
 40
0.0909090909090909
 40
0.0909090909090909
 40
0.1818181818181818
 40
0.1818181818181818
 40
0.1818181818181818
 40
0.1818181818181818
 10
25.67431947244482
 20
-36.12328170591539
 30
0.0
 10
25.41351947244482
 20
-35.72788170591539
 30
0.0
 10
25.08151947244481
 20
-34.65238170591539
 30
0.0
 10
25.0220194724448
 20
-34.0880817059154
 30
0.0
  0
SPLINE
  5
13B
330
1F
100
AcDbEntity
  8
0
  6
Continuous
 62
     7
370
    25
100
AcDbSpline
210
0.0
220
0.0
230
1.0
 70
     8
 71
     3
 72
     8
 73
     4
 74
     0
 42
0.000000001
 43
0.00000001
 40
0.7142857142857143
 40
0.7142857142857143
 40
0.7142857142857143
 40
0.7142857142857143
 40
1.0
 40
1.0
 40
1.0
 40
1.0
 10
30.3159194724448
 20
-33.33878170591534
 30
0.0
 10
29.47491947244481
 20
-34.28898170591535
 30
0.0
 10
29.32891947244481
 20
-34.62978170591535
 30
0.0
 10
28.35461947244481
 20
-34.46918170591536
 30
0.0
  0
SPLINE
  5
13C
330
1F
100
AcDbEntity
  8
0
  6
Continuous
 62
     7
370
    25
100
AcDbSpline
210
0.0
220
0.0
230
1.0
 70
     8
 71
     3
 72
     8
 73
     4
 74
     0
 42
0.000000001
 43
0.00000001
 40
0.0
 40
0.0
 40
0.0
 40
0.0
 40
0.1428571428571428
 40
0.1428571428571428
 40
0.1428571428571428
 40
0.1428571428571428
 10
28.35461947244481
 20
-34.46918170591536
 30
0.0
 10
27.94721947244479
 20
-33.32588170591537
 30
0.0
 10
29.44631947244476
 20
-31.22998170591535
 30
0.0
 10
30.01661947244476
 20
-30.27298170591535
 30
0.0
  0
SPLINE
  5
13D
330
1F
100
AcDbEntity
  8
0
  6
Continuous
 62
     7
370
    25
100
AcDbSpline
210
0.0
220
0.0
230
1.0
 70
     8
 71
     3
 72
     8
 73
     4
 74
     0
 42
0.000000001
 43
0.00000001
 40
0.2857142857142857
 40
0.2857142857142857
 40
0.2857142857142857
 40
0.2857142857142857
 40
0.4285714285714285
 40
0.4285714285714285
 40
0.4285714285714285
 40
0.4285714285714285
 10
33.37021947244475
 20
-27.99238170591531
 30
0.0
 10
33.66571947244475
 20
-28.27338170591531
 30
0.0
 10
33.79791947244475
 20
-28.50658170591531
 30
0.0
 10
33.71051947244474
 20
-29.02658170591531
 30
0.0
  0
SPLINE
  5
13E
330
1F
100
AcDbEntity
  8
0
  6
Continuous
 62
     7
370
    25
100
AcDbSpline
210
0.0
220
0.0
230
1.0
 70
     8
 71
     3
 72
     8
 73
     4
 74
     0
 42
0.000000001
 43
0.00000001
 40
0.4285714285714285
 40
0.4285714285714285
 40
0.4285714285714285
 40
0.4285714285714285
 40
0.5714285714285714
 40
0.5714285714285714
 40
0.5714285714285714
 40
0.5714285714285714
 10
33.71051947244474
 20
-29.02658170591531
 30
0.0
 10
33.56891947244475
 20
-29.86908170591531
 30
0.0
 10
33.36321947244476
 20
-29.81538170591531
 30
0.0
 10
32.83171947244477
 20
-30.45798170591532
 30
0.0
  0
SPLINE
  5
140
330
1F
100
AcDbEntity
  8
0
  6
Continuous
 62
     7
370
    25
100
AcDbSpline
210
0.0
220
0.0
230
1.0
 70
     8
 71
     3
 72
     8
 73
     4
 74
     0
 42
0.000000001
 43
0.00000001
 40
0.1428571428571428
 40
0.1428571428571428
 40
0.1428571428571428
 40
0.1428571428571428
 40
0.2857142857142857
 40
0.2857142857142857
 40
0.2857142857142857
 40
0.2857142857142857
 10
30.01661947244476
 20
-30.27298170591535
 30
0.0
 10
30.40321947244476
 20
-29.62418170591534
 30
0.0
 10
32.30181947244473
 20
-26.97618170591532
 30
0.0
 10
33.37021947244475
 20
-27.99238170591531
 30
0.0
  0
SPLINE
  5
141
330
1F
100
AcDbEntity
  8
0
  6
Continuous
 62
     7
370
    25
100
AcDbSpline
210
0.0
220
0.0
230
1.0
 70
     8
 71
     3
 72
     8
 73
     4
 74
     0
 42
0.000000001
 43
0.00000001
 40
0.8
 40
0.8
 40
0.8
 40
0.8
 40
0.8666666666666667
 40
0.8666666666666667
 40
0.8666666666666667
 40
0.8666666666666667
 10
44.11501947244477
 20
-30.3811817059152
 30
0.0
 10
43.94771947244477
 20
-31.3709817059152
 30
0.0
 10
43.71021947244478
 20
-32.3576817059152
 30
0.0
 10
43.53201947244479
 20
-33.3306817059152
 30
0.0
  0
SPLINE
  5
144
330
1F
100
AcDbEntity
  8
0
  6
Continuous
 62
     7
370
    25
100
AcDbSpline
210
0.0
220
0.0
230
1.0
 70
     8
 71
     3
 72
     8
 73
     4
 74
     0
 42
0.000000001
 43
0.00000001
 40
0.0666666666666667
 40
0.0666666666666667
 40
0.0666666666666667
 40
0.0666666666666667
 40
0.1333333333333333
 40
0.1333333333333333
 40
0.1333333333333333
 40
0.1333333333333333
 10
40.40821947244476
 20
-30.84168170591524
 30
0.0
 10
40.72231947244476
 20
-30.31408170591523
 30
0.0
 10
41.10271947244476
 20
-29.65498170591523
 30
0.0
 10
41.44851947244474
 20
-29.11918170591522
 30
0.0
  0
SPLINE
  5
145
330
1F
100
AcDbEntity
  8
0
  6
Continuous
 62
     7
370
    25
100
AcDbSpline
210
0.0
220
0.0
230
1.0
 70
     8
 71
     3
 72
     8
 73
     4
 74
     0
 42
0.000000001
 43
0.00000001
 40
0.1333333333333333
 40
0.1333333333333333
 40
0.1333333333333333
 40
0.1333333333333333
 40
0.2
 40
0.2
 40
0.2
 40
0.2
 10
41.44851947244474
 20
-29.11918170591522
 30
0.0
 10
41.86841947244474
 20
-28.46868170591522
 30
0.0
 10
42.21331947244475
 20
-27.99758170591522
 30
0.0
 10
42.25171947244473
 20
-27.15368170591522
 30
0.0
  0
SPLINE
  5
146
330
1F
100
AcDbEntity
  8
0
  6
Continuous
 62
     7
370
    25
100
AcDbSpline
210
0.0
220
0.0
230
1.0
 70
     8
 71
     3
 72
     8
 73
     4
 74
     0
 42
0.000000001
 43
0.00000001
 40
0.2
 40
0.2
 40
0.2
 40
0.2
 40
0.2666666666666667
 40
0.2666666666666667
 40
0.2666666666666667
 40
0.2666666666666667
 10
42.25171947244473
 20
-27.15368170591522
 30
0.0
 10
42.42071947244467
 20
-23.43208170591522
 30
0.0
 10
38.74721947244469
 20
-23.69798170591525
 30
0.0
 10
37.7112194724447
 20
-24.80838170591526
 30
0.0
  0
SPLINE
  5
148
330
1F
100
AcDbEntity
  8
0
  6
Continuous
 62
     7
370
    25
100
AcDbSpline
210
0.0
220
0.0
230
1.0
 70
     8
 71
     3
 72
     8
 73
     4
 74
     0
 42
0.000000001
 43
0.00000001
 40
0.3333333333333333
 40
0.3333333333333333
 40
0.3333333333333333
 40
0.3333333333333333
 40
0.4
 40
0.4
 40
0.4
 40
0.4
 10
35.18381947244472
 20
-27.75728170591529
 30
0.0
 10
35.17361947244473
 20
-27.76778170591529
 30
0.0
 10
35.15471947244474
 20
-27.78538170591529
 30
0.0
 10
35.14631947244472
 20
-27.79388170591529
 30
0.0
  0
SPLINE
  5
149
330
1F
100
AcDbEntity
  8
0
  6
Continuous
 62
     7
370
    25
100
AcDbSpline
210
0.0
220
0.0
230
1.0
 70
     8
 71
     3
 72
     8
 73
     4
 74
     0
 42
0.000000001
 43
0.00000001
 40
0.4
 40
0.4
 40
0.4
 40
0.4
 40
0.4666666666666667
 40
0.4666666666666667
 40
0.4666666666666667
 40
0.4666666666666667
 10
35.14631947244472
 20
-27.79388170591529
 30
0.0
 10
35.13771947244472
 20
-27.80248170591529
 30
0.0
 10
35.12091947244475
 20
-27.81848170591529
 30
0.0
 10
35.10811947244473
 20
-27.83068170591529
 30
0.0
  0
SPLINE
  5
14D
330
1F
100
AcDbEntity
  8
0
  6
Continuous
 62
     7
370
    25
100
AcDbSpline
210
0.0
220
0.0
230
1.0
 70
     8
 71
     3
 72
     8
 73
     4
 74
     0
 42
0.000000001
 43
0.00000001
 40
0.6666666666666666
 40
0.6666666666666666
 40
0.6666666666666666
 40
0.6666666666666666
 40
0.7333333333333333
 40
0.7333333333333333
 40
0.7333333333333333
 40
0.7333333333333333
 10
45.2819194724447
 20
-24.49008170591518
 30
0.0
 10
45.0596194724447
 20
-25.47638170591519
 30
0.0
 10
44.92741947244473
 20
-26.45358170591519
 30
0.0
 10
44.70241947244473
 20
-27.44558170591519
 30
0.0
  0
SPLINE
  5
14E
330
1F
100
AcDbEntity
  8
0
  6
Continuous
 62
     7
370
    25
100
AcDbSpline
210
0.0
220
0.0
230
1.0
 70
     8
 71
     3
 72
     8
 73
     4
 74
     0
 42
0.000000001
 43
0.00000001
 40
0.7333333333333333
 40
0.7333333333333333
 40
0.7333333333333333
 40
0.7333333333333333
 40
0.8
 40
0.8
 40
0.8
 40
0.8
 10
44.70241947244473
 20
-27.44558170591519
 30
0.0
 10
44.49821947244474
 20
-28.34638170591519
 30
0.0
 10
44.27331947244474
 20
-29.4441817059152
 30
0.0
 10
44.11501947244477
 20
-30.3811817059152
 30
0.0
  0
LINE
  5
14F
330
1F
100
AcDbEntity
  8
0
  6
Continuous
 62
     7
370
    25
100
AcDbLine
 10
69.0390328685
 20
-76.6993752496
 30
0.0
 11
84.0390328685
 21
-76.6993752496
 31
0.0
  0
LINE
  5
150
330
1F
100
AcDbEntity
  8
0
  6
Continuous
 62
     7
370
    25
100
AcDbLine
 10
69.0390328685
 20
-79.6993752496
 30
0.0
 11
69.0390328685
 21
-76.6993752496
 31
0.0
  0
LINE
  5
151
330
1F
100
AcDbEntity
  8
0
  6
Continuous
 62
     7
370
    25
100
AcDbLine
 10
49.0390328685
 20
-79.6993752496
 30
0.0
 11
69.0390328685
 21
-79.6993752496
 31
0.0
  0
LINE
  5
152
330
1F
100
AcDbEntity
  8
0
  6
Continuous
 62
     7
370
    25
100
AcDbLine
 10
49.0390328685
 20
-76.6993752496
 30
0.0
 11
49.0390328685
 21
-79.6993752496
 31
0.0
  0
LINE
  5
153
330
1F
100
AcDbEntity
  8
0
  6
Continuous
 62
     7
370
    25
100
AcDbLine
 10
-16.4609665653
 20
-76.6993752496
 30
0.0
 11
49.0390328685
 21
-76.6993752496
 31
0.0
  0
LINE
  5
154
330
1F
100
AcDbEntity
  8
0
  6
Continuous
 62
     7
370
    25
100
AcDbLine
 10
-16.4609665653
 20
-79.6993752496
 30
0.0
 11
-16.4609665653
 21
-76.6993752496
 31
0.0
  0
LINE
  5
155
330
1F
100
AcDbEntity
  8
0
  6
Continuous
 62
     7
370
    25
100
AcDbLine
 10
-36.4609665653
 20
-79.6993752496
 30
0.0
 11
-16.4609665653
 21
-79.6993752496
 31
0.0
  0
LINE
  5
156
330
1F
100
AcDbEntity
  8
0
  6
Continuous
 62
     7
370
    25
100
AcDbLine
 10
-36.4609665653
 20
-76.6993752496
 30
0.0
 11
-36.4609665653
 21
-79.6993752496
 31
0.0
  0
LINE
  5
157
330
1F
100
AcDbEntity
  8
0
  6
Continuous
 62
     7
370
    25
100
AcDbLine
 10
-51.4609665653
 20
-76.6993752496
 30
0.0
 11
-36.4609665653
 21
-76.6993752496
 31
0.0
  0
LINE
  5
158
330
1F
100
AcDbEntity
  8
0
  6
Continuous
 62
     7
370
    25
100
AcDbLine
 10
-51.4609665653
 20
-61.6993752496
 30
0.0
 11
-51.4609665653
 21
-76.6993752496
 31
0.0
  0
LINE
  5
159
330
1F
100
AcDbEntity
  8
0
  6
Continuous
 62
     7
370
    25
100
AcDbLine
 10
-54.4609665653
 20
-61.6993752496
 30
0.0
 11
-51.4609665653
 21
-61.6993752496
 31
0.0
  0
LINE
  5
15A
330
1F
100
AcDbEntity
  8
0
  6
Continuous
 62
     7
370
    25
100
AcDbLine
 10
-54.4609665653
 20
-41.6993752496
 30
0.0
 11
-54.4609665653
 21
-61.6993752496
 31
0.0
  0
LINE
  5
15B
330
1F
100
AcDbEntity
  8
0
  6
Continuous
 62
     7
370
    25
100
AcDbLine
 10
-51.4609665653
 20
-41.6993752496
 30
0.0
 11
-54.4609665653
 21
-41.6993752496
 31
0.0
  0
LINE
  5
15C
330
1F
100
AcDbEntity
  8
0
  6
Continuous
 62
     7
370
    25
100
AcDbLine
 10
-51.4609665653
 20
21.8006251379
 30
0.0
 11
-51.4609665653
 21
-41.6993752496
 31
0.0
  0
LINE
  5
15D
330
1F
100
AcDbEntity
  8
0
  6
Continuous
 62
     7
370
    25
100
AcDbLine
 10
-54.4609665653
 20
21.8006251379
 30
0.0
 11
-51.4609665653
 21
21.8006251379
 31
0.0
  0
LINE
  5
15E
330
1F
100
AcDbEntity
  8
0
  6
Continuous
 62
     7
370
    25
100
AcDbLine
 10
-54.4609665653
 20
41.8006251379
 30
0.0
 11
-54.4609665653
 21
21.8006251379
 31
0.0
  0
LINE
  5
15F
330
1F
100
AcDbEntity
  8
0
  6
Continuous
 62
     7
370
    25
100
AcDbLine
 10
-51.4609665653
 20
41.8006251379
 30
0.0
 11
-54.4609665653
 21
41.8006251379
 31
0.0
  0
LINE
  5
160
330
1F
100
AcDbEntity
  8
0
  6
Continuous
 62
     7
370
    25
100
AcDbLine
 10
-51.4609665653
 20
56.8006251379
 30
0.0
 11
-51.4609665653
 21
41.8006251379
 31
0.0
  0
LINE
  5
161
330
1F
100
AcDbEntity
  8
0
  6
Continuous
 62
     7
370
    25
100
AcDbLine
 10
-36.4609665653
 20
56.8006251379
 30
0.0
 11
-51.4609665653
 21
56.8006251379
 31
0.0
  0
LINE
  5
162
330
1F
100
AcDbEntity
  8
0
  6
Continuous
 62
     7
370
    25
100
AcDbLine
 10
-36.4609665653
 20
59.8006251379
 30
0.0
 11
-36.4609665653
 21
56.8006251379
 31
0.0
  0
LINE
  5
163
330
1F
100
AcDbEntity
  8
0
  6
Continuous
 62
     7
370
    25
100
AcDbLine
 10
-16.4609665653
 20
59.8006251379
 30
0.0
 11
-36.4609665653
 21
59.8006251379
 31
0.0
  0
LINE
  5
164
330
1F
100
AcDbEntity
  8
0
  6
Continuous
 62
     7
370
    25
100
AcDbLine
 10
-16.4609665653
 20
56.8006251379
 30
0.0
 11
-16.4609665653
 21
59.8006251379
 31
0.0
  0
LINE
  5
165
330
1F
100
AcDbEntity
  8
0
  6
Continuous
 62
     7
370
    25
100
AcDbLine
 10
49.0390328685
 20
56.8006251379
 30
0.0
 11
-16.4609665653
 21
56.8006251379
 31
0.0
  0
LINE
  5
166
330
1F
100
AcDbEntity
  8
0
  6
Continuous
 62
     7
370
    25
100
AcDbLine
 10
49.0390328685
 20
59.8006251379
 30
0.0
 11
49.0390328685
 21
56.8006251379
 31
0.0
  0
LINE
  5
167
330
1F
100
AcDbEntity
  8
0
  6
Continuous
 62
     7
370
    25
100
AcDbLine
 10
69.0390328685
 20
59.8006251379
 30
0.0
 11
49.0390328685
 21
59.8006251379
 31
0.0
  0
LINE
  5
168
330
1F
100
AcDbEntity
  8
0
  6
Continuous
 62
     7
370
    25
100
AcDbLine
 10
69.0390328685
 20
56.8006251379
 30
0.0
 11
69.0390328685
 21
59.8006251379
 31
0.0
  0
LINE
  5
169
330
1F
100
AcDbEntity
  8
0
  6
Continuous
 62
     7
370
    25
100
AcDbLine
 10
84.0390328685
 20
56.8006251379
 30
0.0
 11
69.0390328685
 21
56.8006251379
 31
0.0
  0
LINE
  5
16A
330
1F
100
AcDbEntity
  8
0
  6
Continuous
 62
     7
370
    25
100
AcDbLine
 10
84.0390328685
 20
41.8006251379
 30
0.0
 11
84.0390328685
 21
56.8006251379
 31
0.0
  0
LINE
  5
16B
330
1F
100
AcDbEntity
  8
0
  6
Continuous
 62
     7
370
    25
100
AcDbLine
 10
87.0390328685
 20
41.8006251379
 30
0.0
 11
84.0390328685
 21
41.8006251379
 31
0.0
  0
LINE
  5
16C
330
1F
100
AcDbEntity
  8
0
  6
Continuous
 62
     7
370
    25
100
AcDbLine
 10
87.0390328685
 20
21.8006251379
 30
0.0
 11
87.0390328685
 21
41.8006251379
 31
0.0
  0
LINE
  5
16D
330
1F
100
AcDbEntity
  8
0
  6
Continuous
 62
     7
370
    25
100
AcDbLine
 10
84.0390328685
 20
21.8006251379
 30
0.0
 11
87.0390328685
 21
21.8006251379
 31
0.0
  0
LINE
  5
16E
330
1F
100
AcDbEntity
  8
0
  6
Continuous
 62
     7
370
    25
100
AcDbLine
 10
84.0390328685
 20
-41.6993752496
 30
0.0
 11
84.0390328685
 21
21.8006251379
 31
0.0
  0
LINE
  5
16F
330
1F
100
AcDbEntity
  8
0
  6
Continuous
 62
     7
370
    25
100
AcDbLine
 10
87.0390328685
 20
-41.6993752496
 30
0.0
 11
84.0390328685
 21
-41.6993752496
 31
0.0
  0
LINE
  5
170
330
1F
100
AcDbEntity
  8
0
  6
Continuous
 62
     7
370
    25
100
AcDbLine
 10
87.0390328685
 20
-61.6993752496
 30
0.0
 11
87.0390328685
 21
-41.6993752496
 31
0.0
  0
LINE
  5
171
330
1F
100
AcDbEntity
  8
0
  6
Continuous
 62
     7
370
    25
100
AcDbLine
 10
84.0390328685
 20
-61.6993752496
 30
0.0
 11
87.0390328685
 21
-61.6993752496
 31
0.0
  0
LINE
  5
172
330
1F
100
AcDbEntity
  8
0
  6
Continuous
 62
     7
370
    25
100
AcDbLine
 10
84.0390328685
 20
-76.6993752496
 30
0.0
 11
84.0390328685
 21
-61.6993752496
 31
0.0
  0
LINE
  5
173
330
1F
100
AcDbEntity
  8
0
  6
Continuous
 62
     7
370
    25
100
AcDbLine
 10
34.1139194724
 20
-30.5203817059
 30
0.0
 11
36.4629194724
 21
-27.7966817059
 31
0.0
  0
LINE
  5
174
330
1F
100
AcDbEntity
  8
0
  6
Continuous
 62
     7
370
    25
100
AcDbLine
 10
37.0624194724
 20
-27.1143817059
 30
0.0
 11
38.2486194724
 21
-25.7334817059
 31
0.0
  0
LINE
  5
175
330
1F
100
AcDbEntity
  8
0
  6
Continuous
 62
     7
370
    25
100
AcDbLine
 10
29.0247194724
 20
-46.8697817059
 30
0.0
 11
26.4863194724
 21
-48.5010817059
 31
0.0
  0
LINE
  5
176
330
1F
100
AcDbEntity
  8
0
  6
Continuous
 62
     7
370
    25
100
AcDbLine
 10
24.8796194724
 20
-50.8821817059
 30
0.0
 11
25.7992194724
 21
-50.1982817059
 31
0.0
  0
LINE
  5
177
330
1F
100
AcDbEntity
  8
0
  6
Continuous
 62
     7
370
    25
100
AcDbLine
 10
30.8622194724
 20
-46.9167817059
 30
0.0
 11
36.1857194724
 21
-43.8318817059
 31
0.0
  0
LINE
  5
178
330
1F
100
AcDbEntity
  8
0
  6
Continuous
 62
     7
370
    25
100
AcDbLine
 10
50.6573194724
 20
-30.9480817059
 30
0.0
 11
52.0521194724
 21
-29.2637817059
 31
0.0
  0
LINE
  5
179
330
1F
100
AcDbEntity
  8
0
  6
Continuous
 62
     7
370
    25
100
AcDbLine
 10
52.3259194724
 20
15.2266182941
 30
0.0
 11
50.2463194724
 21
17.7675182941
 31
0.0
  0
LINE
  5
17A
330
1F
100
AcDbEntity
  8
0
  6
Continuous
 62
     7
370
    25
100
AcDbLine
 10
25.7903194724
 20
21.7163182941
 30
0.0
 11
24.4082194724
 21
20.7841182941
 31
0.0
  0
LINE
  5
17B
330
1F
100
AcDbEntity
  8
0
  6
Continuous
 62
     7
370
    25
100
AcDbLine
 10
19.3706194724
 20
15.7393182941
 30
0.0
 11
18.1046194724
 21
13.9236182941
 31
0.0
  0
LINE
  5
17C
330
1F
100
AcDbEntity
  8
0
  6
Continuous
 62
     7
370
    25
100
AcDbLine
 10
19.3020194724
 20
-29.2858817059
 30
0.0
 11
20.3278194724
 21
-30.5686817059
 31
0.0
  0
LINE
  5
17D
330
1F
100
AcDbEntity
  8
0
  6
Continuous
 62
     7
370
    25
100
AcDbLine
 10
35.7103194724
 20
-19.4194817059
 30
0.0
 11
34.1008194724
 21
-27.0587817059
 31
0.0
  0
LINE
  5
17E
330
1F
100
AcDbEntity
  8
0
  6
Continuous
 62
     7
370
    25
100
AcDbLine
 10
17.2059194724
 20
-23.6161817059
 30
0.0
 11
15.8427194724
 21
-20.4234817059
 31
0.0
  0
LINE
  5
17F
330
1F
100
AcDbEntity
  8
0
  6
Continuous
 62
     7
370
    25
100
AcDbLine
 10
18.2440194724
 20
11.9301182941
 30
0.0
 11
20.0972194724
 21
14.7631182941
 31
0.0
  0
LINE
  5
180
330
1F
100
AcDbEntity
  8
0
  6
Continuous
 62
     7
370
    25
100
AcDbLine
 10
50.4629194724
 20
15.7388182941
 30
0.0
 11
52.1819194724
 21
13.4180182941
 31
0.0
  0
LINE
  5
181
330
1F
100
AcDbEntity
  8
0
  6
Continuous
 62
     7
370
    25
100
AcDbLine
 10
50.6783194724
 20
-29.1121817059
 30
0.0
 11
49.0377194724
 21
-31.0009817059
 31
0.0
  0
LINE
  5
182
330
1F
100
AcDbEntity
  8
0
  6
Continuous
 62
     7
370
    25
100
AcDbLine
 10
42.1304194724
 20
-35.8026817059
 30
0.0
 11
42.0958194724
 21
-34.1265817059
 31
0.0
  0
LINE
  5
183
330
1F
100
AcDbEntity
  8
0
  6
Continuous
 62
     7
370
    25
100
AcDbLine
 10
41.6305194724
 20
-0.1031817059
 30
0.0
 11
43.3413194724
 21
1.2720182941
 31
0.0
  0
LINE
  5
184
330
1F
100
AcDbEntity
  8
0
  6
Continuous
 62
     7
370
    25
100
AcDbLine
 10
44.3360194724
 20
-3.1902817059
 30
0.0
 11
43.7409194724
 21
-3.5573817059
 31
0.0
  0
LINE
  5
185
330
1F
100
AcDbEntity
  8
0
  6
Continuous
 62
     7
370
    25
100
AcDbLine
 10
27.7984194724
 20
-3.6477817059
 30
0.0
 11
26.5484194724
 21
-2.9044817059
 31
0.0
  0
LINE
  5
186
330
1F
100
AcDbEntity
  8
0
  6
Continuous
 62
     7
370
    25
100
AcDbLine
 10
27.6815194724
 20
-35.4243817059
 30
0.0
 11
25.6743194724
 21
-36.1232817059
 31
0.0
  0
LINE
  5
187
330
1F
100
AcDbEntity
  8
0
  6
Continuous
 62
     7
370
    25
100
AcDbLine
 10
32.8317194724
 20
-30.4579817059
 30
0.0
 11
30.3159194724
 21
-33.3387817059
 31
0.0
  0
LINE
  5
188
330
1F
100
AcDbEntity
  8
0
  6
Continuous
 62
     7
370
    25
100
AcDbLine
 10
43.5320194724
 20
-33.3306817059
 30
0.0
 11
39.3550194724
 21
-32.5484817059
 31
0.0
  0
LINE
  5
189
330
1F
100
AcDbEntity
  8
0
  6
Continuous
 62
     7
370
    25
100
AcDbLine
 10
39.3550194724
 20
-32.5484817059
 30
0.0
 11
40.4082194724
 21
-30.8416817059
 31
0.0
  0
LINE
  5
18A
330
1F
100
AcDbEntity
  8
0
  6
Continuous
 62
     7
370
    25
100
AcDbLine
 10
37.7112194724
 20
-24.8083817059
 30
0.0
 11
35.1838194724
 21
-27.7572817059
 31
0.0
  0
LINE
  5
18B
330
1F
100
AcDbEntity
  8
0
  6
Continuous
 62
     7
370
    25
100
AcDbLine
 10
35.1081194724
 20
-27.8306817059
 30
0.0
 11
36.6747194724
 21
-19.6999817059
 31
0.0
  0
LINE
  5
18C
330
1F
100
AcDbEntity
  8
0
  6
Continuous
 62
     7
370
    25
100
AcDbLine
 10
36.6747194724
 20
-19.6999817059
 30
0.0
 11
45.8332194724
 21
-21.4826817059
 31
0.0
  0
LINE
  5
18D
330
1F
100
AcDbEntity
  8
0
  6
Continuous
 62
     7
370
    25
100
AcDbLine
 10
45.8332194724
 20
-21.4826817059
 30
0.0
 11
45.2819194724
 21
-24.4900817059
 31
0.0
  0
ENDSEC
  0
SECTION
  2
OBJECTS
  0
DICTIONARY
  5
C
330
0
100
AcDbDictionary
281
     1
  3
ACAD_GROUP
350
D
  3
ACAD_LAYOUT
350
1A
  3
ACAD_MLINESTYLE
350
17
  3
ACAD_PLOTSETTINGS
350
19
  3
ACAD_PLOTSTYLENAME
350
E
  3
ACAD_SCALELIST
350
47
  0
DICTIONARY
  5
D
102
{ACAD_REACTORS
330
C
102
}
330
C
100
AcDbDictionary
281
     1
  0
DICTIONARY
  5
1A
102
{ACAD_REACTORS
330
C
102
}
330
C
100
AcDbDictionary
281
     1
  3
Layout1
350
1E
  3
Layout2
350
26
  3
Model
350
22
  0
DICTIONARY
  5
17
102
{ACAD_REACTORS
330
C
102
}
330
C
100
AcDbDictionary
281
     1
  3
Standard
350
18
  0
DICTIONARY
  5
19
102
{ACAD_REACTORS
330
C
102
}
330
C
100
AcDbDictionary
281
     1
  0
ACDBDICTIONARYWDFLT
  5
E
102
{ACAD_REACTORS
330
C
102
}
330
C
100
AcDbDictionary
281
     1
  3
Normal
350
F
100
AcDbDictionaryWithDefault
340
F
  0
DICTIONARY
  5
47
102
{ACAD_REACTORS
330
C
102
}
330
C
100
AcDbDictionary
281
     1
  3
A0
350
48
  3
A1
350
49
  3
A2
350
4A
  3
A3
350
4B
  3
A4
350
4C
  3
A5
350
4D
  3
A6
350
4E
  3
A7
350
4F
  3
A8
350
50
  3
A9
350
51
  3
B0
350
52
  3
B1
350
53
  3
B2
350
54
  3
B3
350
55
  3
B4
350
56
  3
B5
350
57
  3
B6
350
58
  3
B7
350
59
  3
B8
350
5A
  3
B9
350
5B
  3
C0
350
5C
  3
C1
350
5D
  3
C2
350
5E
  3
C3
350
5F
  3
C4
350
60
  3
C5
350
61
  3
C6
350
62
  3
C7
350
63
  3
C8
350
64
  3
C9
350
65
  3
D0
350
66
  3
D1
350
67
  3
D2
350
68
  0
LAYOUT
  5
1E
102
{ACAD_REACTORS
330
1A
102
}
330
1A
100
AcDbPlotSettings
  1

  2
none_device
  4

  6

 40
0.0
 41
0.0
 42
0.0
 43
0.0
 44
0.0
 45
0.0
 46
0.0
 47
0.0
 48
0.0
 49
0.0
140
0.0
141
0.0
142
1.0
143
1.0
 70
   688
 72
     1
 73
     0
 74
     5
  7

 75
    16
147
1.0
148
0.0
149
0.0
100
AcDbLayout
  1
Layout1
 70
     1
 71
     1
 10
0.0
 20
0.0
 11
420.0
 21
297.0
 12
0.0
 22
0.0
 32
0.0
 14
1.0000000000E+20
 24
1.0000000000E+20
 34
1.0000000000E+20
 15
-1.0000000000E+20
 25
-1.0000000000E+20
 35
-1.0000000000E+20
146
0.0
 13
0.0
 23
0.0
 33
0.0
 16
1.0
 26
0.0
 36
0.0
 17
0.0
 27
1.0
 37
0.0
 76
     0
330
1B
  0
LAYOUT
  5
26
102
{ACAD_REACTORS
330
1A
102
}
330
1A
100
AcDbPlotSettings
  1

  2
none_device
  4

  6

 40
0.0
 41
0.0
 42
0.0
 43
0.0
 44
0.0
 45
0.0
 46
0.0
 47
0.0
 48
0.0
 49
0.0
140
0.0
141
0.0
142
1.0
143
1.0
 70
   688
 72
     1
 73
     0
 74
     5
  7

 75
    16
147
1.0
148
0.0
149
0.0
100
AcDbLayout
  1
Layout2
 70
     1
 71
     2
 10
0.0
 20
0.0
 11
0.0
 21
0.0
 12
0.0
 22
0.0
 32
0.0
 14
0.0
 24
0.0
 34
0.0
 15
0.0
 25
0.0
 35
0.0
146
0.0
 13
0.0
 23
0.0
 33
0.0
 16
1.0
 26
0.0
 36
0.0
 17
0.0
 27
1.0
 37
0.0
 76
     0
330
23
  0
LAYOUT
  5
22
102
{ACAD_REACTORS
330
1A
102
}
330
1A
100
AcDbPlotSettings
  1

  2
none_device
  4
ANSI_A_(11.00_x_8.50_Inches)
  6

 40
6.35
 41
19.05
 42
6.35000508
 43
19.05000254
 44
279.4
 45
215.9
 46
108.392046025
 47
104.1443669587
 48
0.0
 49
0.0
140
0.0
141
0.0
142
0.0603225805
143
1.0
 70
  1696
 72
     0
 73
     0
 74
     0
  7

 75
     0
147
0.0179189148
148
-1300.4909072572
149
0.0
100
AcDbLayout
  1
Model
 70
     1
 71
     0
 10
0.0
 20
0.0
 11
420.0
 21
297.0
 12
0.0
 22
0.0
 32
0.0
 14
-54.4609665653
 24
-79.6993752496
 34
0.0
 15
87.0390328685
 25
59.8006251379
 35
0.0
146
0.0
 13
0.0
 23
0.0
 33
0.0
 16
1.0
 26
0.0
 36
0.0
 17
0.0
 27
1.0
 37
0.0
 76
     0
330
1F
331
29
  0
MLINESTYLE
  5
18
102
{ACAD_REACTORS
330
17
102
}
330
17
100
AcDbMlineStyle
  2
Standard
 70
     0
  3

 62
   256
 51
90.0
 52
90.0
 71
     2
 49
0.5
 62
   256
  6
BYLAYER
 49
-0.5
 62
   256
  6
BYLAYER
  0
ACDBPLACEHOLDER
  5
F
102
{ACAD_REACTORS
330
E
102
}
330
E
  0
SCALE
  5
48
102
{ACAD_REACTORS
330
47
102
}
330
47
100
AcDbScale
 70
     0
300
1:1
140
1.0
141
1.0
290
     1
  0
SCALE
  5
49
102
{ACAD_REACTORS
330
47
102
}
330
47
100
AcDbScale
 70
     0
300
1:2
140
1.0
141
2.0
290
     0
  0
SCALE
  5
4A
102
{ACAD_REACTORS
330
47
102
}
330
47
100
AcDbScale
 70
     0
300
1:4
140
1.0
141
4.0
290
     0
  0
SCALE
  5
4B
102
{ACAD_REACTORS
330
47
102
}
330
47
100
AcDbScale
 70
     0
300
1:5
140
1.0
141
5.0
290
     0
  0
SCALE
  5
4C
102
{ACAD_REACTORS
330
47
102
}
330
47
100
AcDbScale
 70
     0
300
1:8
140
1.0
141
8.0
290
     0
  0
SCALE
  5
4D
102
{ACAD_REACTORS
330
47
102
}
330
47
100
AcDbScale
 70
     0
300
1:10
140
1.0
141
10.0
290
     0
  0
SCALE
  5
4E
102
{ACAD_REACTORS
330
47
102
}
330
47
100
AcDbScale
 70
     0
300
1:16
140
1.0
141
16.0
290
     0
  0
SCALE
  5
4F
102
{ACAD_REACTORS
330
47
102
}
330
47
100
AcDbScale
 70
     0
300
1:20
140
1.0
141
20.0
290
     0
  0
SCALE
  5
50
102
{ACAD_REACTORS
330
47
102
}
330
47
100
AcDbScale
 70
     0
300
1:30
140
1.0
141
30.0
290
     0
  0
SCALE
  5
51
102
{ACAD_REACTORS
330
47
102
}
330
47
100
AcDbScale
 70
     0
300
1:40
140
1.0
141
40.0
290
     0
  0
SCALE
  5
52
102
{ACAD_REACTORS
330
47
102
}
330
47
100
AcDbScale
 70
     0
300
1:50
140
1.0
141
50.0
290
     0
  0
SCALE
  5
53
102
{ACAD_REACTORS
330
47
102
}
330
47
100
AcDbScale
 70
     0
300
1:100
140
1.0
141
100.0
290
     0
  0
SCALE
  5
54
102
{ACAD_REACTORS
330
47
102
}
330
47
100
AcDbScale
 70
     0
300
2:1
140
2.0
141
1.0
290
     0
  0
SCALE
  5
55
102
{ACAD_REACTORS
330
47
102
}
330
47
100
AcDbScale
 70
     0
300
4:1
140
4.0
141
1.0
290
     0
  0
SCALE
  5
56
102
{ACAD_REACTORS
330
47
102
}
330
47
100
AcDbScale
 70
     0
300
8:1
140
8.0
141
1.0
290
     0
  0
SCALE
  5
57
102
{ACAD_REACTORS
330
47
102
}
330
47
100
AcDbScale
 70
     0
300
10:1
140
10.0
141
1.0
290
     0
  0
SCALE
  5
58
102
{ACAD_REACTORS
330
47
102
}
330
47
100
AcDbScale
 70
     0
300
100:1
140
100.0
141
1.0
290
     0
  0
SCALE
  5
59
102
{ACAD_REACTORS
330
47
102
}
330
47
100
AcDbScale
 70
     0
300
1/128" = 1'-0"
140
0.0078125
141
12.0
290
     0
  0
SCALE
  5
5A
102
{ACAD_REACTORS
330
47
102
}
330
47
100
AcDbScale
 70
     0
300
1/64" = 1'-0"
140
0.015625
141
12.0
290
     0
  0
SCALE
  5
5B
102
{ACAD_REACTORS
330
47
102
}
330
47
100
AcDbScale
 70
     0
300
1/32" = 1'-0"
140
0.03125
141
12.0
290
     0
  0
SCALE
  5
5C
102
{ACAD_REACTORS
330
47
102
}
330
47
100
AcDbScale
 70
     0
300
1/16" = 1'-0"
140
0.0625
141
12.0
290
     0
  0
SCALE
  5
5D
102
{ACAD_REACTORS
330
47
102
}
330
47
100
AcDbScale
 70
     0
300
3/32" = 1'-0"
140
0.09375
141
12.0
290
     0
  0
SCALE
  5
5E
102
{ACAD_REACTORS
330
47
102
}
330
47
100
AcDbScale
 70
     0
300
1/8" = 1'-0"
140
0.125
141
12.0
290
     0
  0
SCALE
  5
5F
102
{ACAD_REACTORS
330
47
102
}
330
47
100
AcDbScale
 70
     0
300
3/16" = 1'-0"
140
0.1875
141
12.0
290
     0
  0
SCALE
  5
60
102
{ACAD_REACTORS
330
47
102
}
330
47
100
AcDbScale
 70
     0
300
1/4" = 1'-0"
140
0.25
141
12.0
290
     0
  0
SCALE
  5
61
102
{ACAD_REACTORS
330
47
102
}
330
47
100
AcDbScale
 70
     0
300
3/8" = 1'-0"
140
0.375
141
12.0
290
     0
  0
SCALE
  5
62
102
{ACAD_REACTORS
330
47
102
}
330
47
100
AcDbScale
 70
     0
300
1/2" = 1'-0"
140
0.5
141
12.0
290
     0
  0
SCALE
  5
63
102
{ACAD_REACTORS
330
47
102
}
330
47
100
AcDbScale
 70
     0
300
3/4" = 1'-0"
140
0.75
141
12.0
290
     0
  0
SCALE
  5
64
102
{ACAD_REACTORS
330
47
102
}
330
47
100
AcDbScale
 70
     0
300
1" = 1'-0"
140
1.0
141
12.0
290
     0
  0
SCALE
  5
65
102
{ACAD_REACTORS
330
47
102
}
330
47
100
AcDbScale
 70
     0
300
1-1/2" = 1'-0"
140
1.5
141
12.0
290
     0
  0
SCALE
  5
66
102
{ACAD_REACTORS
330
47
102
}
330
47
100
AcDbScale
 70
     0
300
3" = 1'-0"
140
3.0
141
12.0
290
     0
  0
SCALE
  5
67
102
{ACAD_REACTORS
330
47
102
}
330
47
100
AcDbScale
 70
     0
300
6" = 1'-0"
140
6.0
141
12.0
290
     0
  0
SCALE
  5
68
102
{ACAD_REACTORS
330
47
102
}
330
47
100
AcDbScale
 70
     0
300
1'-0" = 1'-0"
140
12.0
141
12.0
290
     0
  0
ENDSEC
  0
EOF
